<?xml version="1.0" encoding="UTF-8" standalone="no"?><svg xmlns="http://www.w3.org/2000/svg" xmlns:xlink="http://www.w3.org/1999/xlink" contentScriptType="application/ecmascript" contentStyleType="text/css" height="217px" preserveAspectRatio="none" style="width:535px;height:217px;background:#FCF7F2;" version="1.1" viewBox="0 0 535 217" width="535px" zoomAndPan="magnify"><defs><filter height="300%" id="f1uumdz85ayjca" width="300%" x="-1" y="-1"><feGaussianBlur result="blurOut" stdDeviation="2.0"/><feColorMatrix in="blurOut" result="blurOut2" type="matrix" values="0 0 0 0 0 0 0 0 0 0 0 0 0 0 0 0 0 0 .4 0"/><feOffset dx="4.0" dy="4.0" in="blurOut2" result="blurOut3"/><feBlend in="SourceGraphic" in2="blurOut3" mode="normal"/></filter></defs><g><!--MD5=[691a1726be306d84324876b17512fe90]
entity system--><ellipse cx="219.5" cy="37" fill="#FEFECE" filter="url(#f1uumdz85ayjca)" rx="8" ry="8" style="stroke: #A80036; stroke-width: 2.0;"/><text fill="#000000" font-family="sans-serif" font-size="14" lengthAdjust="spacingAndGlyphs" textLength="53" x="193" y="66.9951">EzShop</text><!--MD5=[55f2968de154b8cc740615bf6e5af92f]
entity owner--><ellipse cx="28.5" cy="135.5" fill="#FEFECE" filter="url(#f1uumdz85ayjca)" rx="8" ry="8" style="stroke: #A80036; stroke-width: 1.5;"/><path d="M28.5,143.5 L28.5,170.5 M15.5,151.5 L41.5,151.5 M28.5,170.5 L15.5,185.5 M28.5,170.5 L41.5,185.5 " fill="none" filter="url(#f1uumdz85ayjca)" style="stroke: #A80036; stroke-width: 1.5;"/><text fill="#000000" font-family="sans-serif" font-size="14" lengthAdjust="spacingAndGlyphs" textLength="45" x="6" y="203.9951">Owner</text><!--MD5=[c0fcf851e3ae32df25223ba547bc9362]
entity register--><ellipse cx="132.5" cy="135.5" fill="#FEFECE" filter="url(#f1uumdz85ayjca)" rx="8" ry="8" style="stroke: #A80036; stroke-width: 1.5;"/><path d="M132.5,143.5 L132.5,170.5 M119.5,151.5 L145.5,151.5 M132.5,170.5 L119.5,185.5 M132.5,170.5 L145.5,185.5 " fill="none" filter="url(#f1uumdz85ayjca)" style="stroke: #A80036; stroke-width: 1.5;"/><text fill="#000000" font-family="sans-serif" font-size="14" lengthAdjust="spacingAndGlyphs" textLength="92" x="86.5" y="203.9951">Cash register</text><!--MD5=[483fe0b9850f321f8901cefa68f917f5]
entity shipping--><ellipse cx="306.5" cy="135.5" fill="#FEFECE" filter="url(#f1uumdz85ayjca)" rx="8" ry="8" style="stroke: #A80036; stroke-width: 1.5;"/><path d="M306.5,143.5 L306.5,170.5 M293.5,151.5 L319.5,151.5 M306.5,170.5 L293.5,185.5 M306.5,170.5 L319.5,185.5 " fill="none" filter="url(#f1uumdz85ayjca)" style="stroke: #A80036; stroke-width: 1.5;"/><text fill="#000000" font-family="sans-serif" font-size="14" lengthAdjust="spacingAndGlyphs" textLength="185" x="214" y="203.9951">Shipment tracking provider</text><!--MD5=[5570e3e1f87e17666f5b7811a358d7ce]
entity posProvider--><ellipse cx="478.5" cy="135.5" fill="#FEFECE" filter="url(#f1uumdz85ayjca)" rx="8" ry="8" style="stroke: #A80036; stroke-width: 1.5;"/><path d="M478.5,143.5 L478.5,170.5 M465.5,151.5 L491.5,151.5 M478.5,170.5 L465.5,185.5 M478.5,170.5 L491.5,185.5 " fill="none" filter="url(#f1uumdz85ayjca)" style="stroke: #A80036; stroke-width: 1.5;"/><text fill="#000000" font-family="sans-serif" font-size="14" lengthAdjust="spacingAndGlyphs" textLength="89" x="434" y="203.9951">POS provider</text><!--MD5=[0b8d6067190772e80d2fe0611fca1a2d]
link system to owner--><path d="M205.41,44.7 C177.81,58.15 115.22,90.23 68.5,126 C63.99,129.45 59.46,133.38 55.16,137.38 " fill="none" id="system-owner" style="stroke: #A80036; stroke-width: 1.0;"/><polygon fill="#A80036" points="51.28,141.06,60.562,137.767,54.9071,137.6185,55.0556,131.9636,51.28,141.06" style="stroke: #A80036; stroke-width: 1.0;"/><polygon fill="#A80036" points="210.15,42.41,200.306,42.7188,205.6469,44.5829,203.7827,49.9238,210.15,42.41" style="stroke: #A80036; stroke-width: 1.0;"/><!--MD5=[b12efc954b9f148db64bdcbd76124cd8]
reverse link system to register--><path d="M210.71,50.88 C198.81,68.31 177.06,100.19 159.51,125.91 " fill="none" id="system&lt;-register" style="stroke: #A80036; stroke-width: 1.0;"/><polygon fill="#A80036" points="213.79,46.37,205.4156,51.5536,210.9738,50.5014,212.0259,56.0596,213.79,46.37" style="stroke: #A80036; stroke-width: 1.0;"/><!--MD5=[addf932a061fc2cec6786c0064bec91b]
reverse link system to shipping--><path d="M228.29,50.88 C240.19,68.31 261.94,100.19 279.49,125.91 " fill="none" id="system&lt;-shipping" style="stroke: #A80036; stroke-width: 1.0;"/><polygon fill="#A80036" points="225.21,46.37,226.9741,56.0596,228.0262,50.5014,233.5844,51.5536,225.21,46.37" style="stroke: #A80036; stroke-width: 1.0;"/><!--MD5=[5fd65474f459c3d3c76f1c15136620d2]
reverse link system to posProvider--><path d="M233.58,43.45 C266.37,56.34 350.12,90.28 416.5,126 C422.23,129.08 428.14,132.51 433.93,136.01 " fill="none" id="system&lt;-posProvider" style="stroke: #A80036; stroke-width: 1.0;"/><polygon fill="#A80036" points="228.76,41.57,235.6941,48.5641,233.4189,43.385,238.5981,41.1098,228.76,41.57" style="stroke: #A80036; stroke-width: 1.0;"/><!--MD5=[c55657dc0fae9e92083cfa525b73b770]
@startuml contextDiagram
!pragma layout smetana
skinparam backgroundColor #fcf7f2
skinparam actorStyle hollow

circle "EzShop" as system
actor "Owner" as owner
actor "Cash register" as register
actor "Shipment tracking provider" as shipping
actor "POS provider" as posProvider

system <- -> owner
system <- - register
system <- - shipping
system <- - posProvider 

@enduml

PlantUML version 1.2020.02(Sun Mar 01 11:22:07 CET 2020)
(GPL source distribution)
Java Runtime: OpenJDK Runtime Environment
JVM: OpenJDK 64-Bit Server VM
Java Version: 21.0.8+9-Ubuntu-0ubuntu122.04.1
Operating System: Linux
Default Encoding: UTF-8
Language: en
Country: GB
--></g></svg>