<?xml version="1.0" encoding="UTF-8" standalone="no"?><svg xmlns="http://www.w3.org/2000/svg" xmlns:xlink="http://www.w3.org/1999/xlink" contentScriptType="application/ecmascript" contentStyleType="text/css" height="305px" preserveAspectRatio="none" style="width:1028px;height:305px;background:#FCF7F2;" version="1.1" viewBox="0 0 1028 305" width="1028px" zoomAndPan="magnify"><defs><filter height="300%" id="fjqqun2otraqz" width="300%" x="-1" y="-1"><feGaussianBlur result="blurOut" stdDeviation="2.0"/><feColorMatrix in="blurOut" result="blurOut2" type="matrix" values="0 0 0 0 0 0 0 0 0 0 0 0 0 0 0 0 0 0 .4 0"/><feOffset dx="4.0" dy="4.0" in="blurOut2" result="blurOut3"/><feBlend in="SourceGraphic" in2="blurOut3" mode="normal"/></filter></defs><g><!--MD5=[c1fe354191168b098bc4322397caaff0]
entity POS--><rect fill="#FEFECE" filter="url(#fjqqun2otraqz)" height="39.2969" style="stroke: #000000; stroke-width: 1.5;" width="112" x="7" y="8"/><polygon fill="#FEFECE" points="102,13,102,27,114,27,114,19,108,13,102,13" style="stroke: #000000; stroke-width: 1.5;"/><line style="stroke: #000000; stroke-width: 1.5;" x1="108" x2="108" y1="13" y2="19"/><line style="stroke: #000000; stroke-width: 1.5;" x1="114" x2="108" y1="19" y2="19"/><text fill="#000000" font-family="sans-serif" font-size="14" lengthAdjust="spacingAndGlyphs" textLength="82" x="17" y="33.9951">POS service</text><!--MD5=[fc1deef60cc46bea074b5c7ccdba8ad9]
entity EzShopWinApp--><rect fill="#FEFECE" filter="url(#fjqqun2otraqz)" height="39.2969" style="stroke: #000000; stroke-width: 1.5;" width="179" x="480.5" y="8"/><polygon fill="#FEFECE" points="642.5,13,642.5,27,654.5,27,654.5,19,648.5,13,642.5,13" style="stroke: #000000; stroke-width: 1.5;"/><line style="stroke: #000000; stroke-width: 1.5;" x1="648.5" x2="648.5" y1="13" y2="19"/><line style="stroke: #000000; stroke-width: 1.5;" x1="654.5" x2="648.5" y1="19" y2="19"/><text fill="#000000" font-family="sans-serif" font-size="14" lengthAdjust="spacingAndGlyphs" textLength="149" x="490.5" y="33.9951">EzShop Windows app</text><!--MD5=[4f3ee25541e4605a98ad4c4c2c540c47]
entity OrderTracking--><rect fill="#FEFECE" filter="url(#fjqqun2otraqz)" height="39.2969" style="stroke: #000000; stroke-width: 1.5;" width="181" x="805.5" y="8"/><polygon fill="#FEFECE" points="969.5,13,969.5,27,981.5,27,981.5,19,975.5,13,969.5,13" style="stroke: #000000; stroke-width: 1.5;"/><line style="stroke: #000000; stroke-width: 1.5;" x1="975.5" x2="975.5" y1="13" y2="19"/><line style="stroke: #000000; stroke-width: 1.5;" x1="981.5" x2="975.5" y1="19" y2="19"/><text fill="#000000" font-family="sans-serif" font-size="14" lengthAdjust="spacingAndGlyphs" textLength="151" x="815.5" y="33.9951">Order tracking service</text><!--MD5=[95a24360087fe5881b67855ecbd2a712]
entity DBService--><rect fill="#FEFECE" filter="url(#fjqqun2otraqz)" height="39.2969" style="stroke: #000000; stroke-width: 1.5;" width="104" x="341" y="8"/><polygon fill="#FEFECE" points="428,13,428,27,440,27,440,19,434,13,428,13" style="stroke: #000000; stroke-width: 1.5;"/><line style="stroke: #000000; stroke-width: 1.5;" x1="434" x2="434" y1="13" y2="19"/><line style="stroke: #000000; stroke-width: 1.5;" x1="440" x2="434" y1="19" y2="19"/><text fill="#000000" font-family="sans-serif" font-size="14" lengthAdjust="spacingAndGlyphs" textLength="74" x="351" y="33.9951">DB service</text><!--MD5=[0e0df8464bdf3d4064b9d3b606cf8f8a]
entity EzShopBackEnd--><rect fill="#FEFECE" filter="url(#fjqqun2otraqz)" height="39.2969" style="stroke: #000000; stroke-width: 1.5;" width="151" x="154.5" y="8"/><polygon fill="#FEFECE" points="288.5,13,288.5,27,300.5,27,300.5,19,294.5,13,288.5,13" style="stroke: #000000; stroke-width: 1.5;"/><line style="stroke: #000000; stroke-width: 1.5;" x1="294.5" x2="294.5" y1="13" y2="19"/><line style="stroke: #000000; stroke-width: 1.5;" x1="300.5" x2="294.5" y1="19" y2="19"/><text fill="#000000" font-family="sans-serif" font-size="14" lengthAdjust="spacingAndGlyphs" textLength="121" x="164.5" y="33.9951">EzShop back end</text><!--MD5=[2c15e59a3989bb566717477fd0b9a444]
entity CashRegister--><polygon fill="#FEFECE" filter="url(#fjqqun2otraqz)" points="6,134,16,124,138,124,138,160.2969,128,170.2969,6,170.2969,6,134" style="stroke: #000000; stroke-width: 1.5;"/><line style="stroke: #000000; stroke-width: 1.5;" x1="128" x2="137" y1="134" y2="125"/><line style="stroke: #000000; stroke-width: 1.5;" x1="6" x2="128" y1="134" y2="134"/><line style="stroke: #000000; stroke-width: 1.5;" x1="128" x2="128" y1="134" y2="170.2969"/><text fill="#000000" font-family="sans-serif" font-size="14" lengthAdjust="spacingAndGlyphs" textLength="92" x="21" y="156.9951">Cash register</text><!--MD5=[7cdefa67c1b6ba318d3e022a64440849]
entity ClientPC--><polygon fill="#FEFECE" filter="url(#fjqqun2otraqz)" points="460,134,470,124,674,124,674,160.2969,664,170.2969,460,170.2969,460,134" style="stroke: #000000; stroke-width: 1.5;"/><line style="stroke: #000000; stroke-width: 1.5;" x1="664" x2="673" y1="134" y2="125"/><line style="stroke: #000000; stroke-width: 1.5;" x1="460" x2="664" y1="134" y2="134"/><line style="stroke: #000000; stroke-width: 1.5;" x1="664" x2="664" y1="134" y2="170.2969"/><text fill="#000000" font-family="sans-serif" font-size="14" lengthAdjust="spacingAndGlyphs" textLength="174" x="475" y="156.9951">client Windows computer</text><!--MD5=[9f0a282625fabf6fba45a11ffc5a79fb]
entity ShippingService--><polygon fill="#FEFECE" filter="url(#fjqqun2otraqz)" points="786,134,796,124,1006,124,1006,160.2969,996,170.2969,786,170.2969,786,134" style="stroke: #000000; stroke-width: 1.5;"/><line style="stroke: #000000; stroke-width: 1.5;" x1="996" x2="1005" y1="134" y2="125"/><line style="stroke: #000000; stroke-width: 1.5;" x1="786" x2="996" y1="134" y2="134"/><line style="stroke: #000000; stroke-width: 1.5;" x1="996" x2="996" y1="134" y2="170.2969"/><text fill="#000000" font-family="sans-serif" font-size="14" lengthAdjust="spacingAndGlyphs" textLength="180" x="801" y="156.9951">Shipping company service</text><!--MD5=[99c3b1002d1e51a85ab6a37bc85c0c8b]
entity EzShopServer--><polygon fill="#FEFECE" filter="url(#fjqqun2otraqz)" points="230,134,240,124,370,124,370,160.2969,360,170.2969,230,170.2969,230,134" style="stroke: #000000; stroke-width: 1.5;"/><line style="stroke: #000000; stroke-width: 1.5;" x1="360" x2="369" y1="134" y2="125"/><line style="stroke: #000000; stroke-width: 1.5;" x1="230" x2="360" y1="134" y2="134"/><line style="stroke: #000000; stroke-width: 1.5;" x1="360" x2="360" y1="134" y2="170.2969"/><text fill="#000000" font-family="sans-serif" font-size="14" lengthAdjust="spacingAndGlyphs" textLength="100" x="245" y="156.9951">EzShop server</text><!--MD5=[e0ce3f04a84c4e9839cbbe02ae2dfcd5]
entity pos--><polygon fill="#FEFECE" filter="url(#fjqqun2otraqz)" points="235.5,257,245.5,247,364.5,247,364.5,283.2969,354.5,293.2969,235.5,293.2969,235.5,257" style="stroke: #000000; stroke-width: 1.5;"/><line style="stroke: #000000; stroke-width: 1.5;" x1="354.5" x2="363.5" y1="257" y2="248"/><line style="stroke: #000000; stroke-width: 1.5;" x1="235.5" x2="354.5" y1="257" y2="257"/><line style="stroke: #000000; stroke-width: 1.5;" x1="354.5" x2="354.5" y1="257" y2="293.2969"/><text fill="#000000" font-family="sans-serif" font-size="14" lengthAdjust="spacingAndGlyphs" textLength="89" x="250.5" y="279.9951">POS provider</text><!--MD5=[1bad6e35b7298d86baccf2f7adfb60c6]
link POS to CashRegister--><path d="M64.43,47.12 C65.9,66.41 68.23,96.76 69.91,118.75 " fill="none" id="POS-&gt;CashRegister" style="stroke: #A80036; stroke-width: 1.0;"/><polygon fill="#A80036" points="70.3,123.86,73.5939,114.5783,69.9143,118.8749,65.6177,115.1953,70.3,123.86" style="stroke: #A80036; stroke-width: 1.0;"/><text fill="#000000" font-family="sans-serif" font-size="13" lengthAdjust="spacingAndGlyphs" textLength="58" x="69" y="90.0669">«deploy»</text><!--MD5=[72e96444d4a4f00df5573a83399926d8]
link EzShopWinApp to ClientPC--><path d="M569.52,47.12 C569.03,66.41 568.26,96.76 567.7,118.75 " fill="none" id="EzShopWinApp-&gt;ClientPC" style="stroke: #A80036; stroke-width: 1.0;"/><polygon fill="#A80036" points="567.57,123.86,571.8,114.9658,567.6985,118.8617,563.8027,114.7602,567.57,123.86" style="stroke: #A80036; stroke-width: 1.0;"/><text fill="#000000" font-family="sans-serif" font-size="13" lengthAdjust="spacingAndGlyphs" textLength="58" x="569" y="90.0669">«deploy»</text><!--MD5=[ee0f1c2f4b5f1c9856224f8aad1df42d]
link OrderTracking to ShippingService--><path d="M896,47.12 C896,66.41 896,96.76 896,118.75 " fill="none" id="OrderTracking-&gt;ShippingService" style="stroke: #A80036; stroke-width: 1.0;"/><polygon fill="#A80036" points="896,123.86,900,114.86,896,118.86,892,114.86,896,123.86" style="stroke: #A80036; stroke-width: 1.0;"/><text fill="#000000" font-family="sans-serif" font-size="13" lengthAdjust="spacingAndGlyphs" textLength="58" x="897" y="90.0669">«deploy»</text><!--MD5=[673bbb0915e60afd936c60a4d17cccfa]
link DBService to EzShopServer--><path d="M378.26,47.12 C362.74,66.73 338.16,97.78 320.7,119.85 " fill="none" id="DBService-&gt;EzShopServer" style="stroke: #A80036; stroke-width: 1.0;"/><polygon fill="#A80036" points="317.52,123.86,326.2352,119.2726,320.6173,119.9349,319.955,114.3169,317.52,123.86" style="stroke: #A80036; stroke-width: 1.0;"/><text fill="#000000" font-family="sans-serif" font-size="13" lengthAdjust="spacingAndGlyphs" textLength="58" x="354" y="90.0669">«deploy»</text><!--MD5=[a2daa69bf67e7650f9d3e86fab5061fd]
link EzShopBackEnd to EzShopServer--><path d="M241.09,47.12 C252.68,66.57 270.97,97.27 284.09,119.3 " fill="none" id="EzShopBackEnd-&gt;EzShopServer" style="stroke: #A80036; stroke-width: 1.0;"/><polygon fill="#A80036" points="286.81,123.86,285.6478,114.08,284.2543,119.5625,278.7718,118.169,286.81,123.86" style="stroke: #A80036; stroke-width: 1.0;"/><text fill="#000000" font-family="sans-serif" font-size="13" lengthAdjust="spacingAndGlyphs" textLength="58" x="269" y="90.0669">«deploy»</text><!--MD5=[8e2c10ccfd7a2bb65674de2c2408a9a8]
link CashRegister to EzShopServer--><path d="M138.25,147 C166.92,147 200.49,147 229.6,147 " fill="none" id="CashRegister-EzShopServer" style="stroke: #A80036; stroke-width: 1.0;"/><text fill="#000000" font-family="sans-serif" font-size="13" lengthAdjust="spacingAndGlyphs" textLength="51" x="158.5" y="140.0669">LAN link</text><!--MD5=[561acb7336df14fa25eb10f30721549f]
link EzShopServer to ClientPC--><path d="M370.15,147 C397.58,147 429.64,147 459.84,147 " fill="none" id="EzShopServer-ClientPC" style="stroke: #A80036; stroke-width: 1.0;"/><text fill="#000000" font-family="sans-serif" font-size="13" lengthAdjust="spacingAndGlyphs" textLength="51" x="389.5" y="140.0669">LAN link</text><!--MD5=[526bfa4203049fc7df61fed76a9126d5]
link ClientPC to ShippingService--><path d="M674.27,147 C709.99,147 749.83,147 785.77,147 " fill="none" id="ClientPC-ShippingService" style="stroke: #A80036; stroke-width: 1.0;"/><text fill="#000000" font-family="sans-serif" font-size="13" lengthAdjust="spacingAndGlyphs" textLength="75" x="692.5" y="140.0669">internet link</text><!--MD5=[75ca7942d5b9b131aaf6380b3b1534ac]
link EzShopServer to pos--><path d="M300,170.19 C300,192.03 300,225.16 300,246.95 " fill="none" id="EzShopServer-pos" style="stroke: #A80036; stroke-width: 1.0;"/><text fill="#000000" font-family="sans-serif" font-size="13" lengthAdjust="spacingAndGlyphs" textLength="75" x="301" y="213.0669">internet link</text><!--MD5=[a9aa046d764d9c308deadf9696f561fd]
@startuml deploymentDiagram
!pragma layout smetana
skinparam backgroundColor #fcf7f2

artifact "POS service" as POS
artifact "EzShop Windows app" as EzShopWinApp
artifact "Order tracking service" as OrderTracking
artifact "DB service" as DBService
artifact "EzShop back end" as EzShopBackEnd

node "Cash register" as CashRegister
node "client Windows computer" as ClientPC
node "Shipping company service" as ShippingService
node "EzShop server" as EzShopServer
node "POS provider" as pos

POS - -> CashRegister : <<deploy>>
EzShopWinApp - -> ClientPC : <<deploy>>
OrderTracking - -> ShippingService : <<deploy>>
DBService - -> EzShopServer : <<deploy>>
EzShopBackEnd - -> EzShopServer : <<deploy>>

CashRegister -r- EzShopServer : LAN link
ClientPC -l- EzShopServer : LAN link
ClientPC -r- ShippingService : internet link
EzShopServer - - pos: internet link
@enduml

PlantUML version 1.2020.02(Sun Mar 01 11:22:07 CET 2020)
(GPL source distribution)
Java Runtime: OpenJDK Runtime Environment
JVM: OpenJDK 64-Bit Server VM
Java Version: 21.0.8+9-Ubuntu-0ubuntu122.04.1
Operating System: Linux
Default Encoding: UTF-8
Language: en
Country: GB
--></g></svg>