<?xml version="1.0" encoding="UTF-8" standalone="no"?><svg xmlns="http://www.w3.org/2000/svg" xmlns:xlink="http://www.w3.org/1999/xlink" contentScriptType="application/ecmascript" contentStyleType="text/css" height="986px" preserveAspectRatio="none" style="width:706px;height:986px;background:#FCF7F2;" version="1.1" viewBox="0 0 706 986" width="706px" zoomAndPan="magnify"><defs><filter height="300%" id="fv665m66iosm4" width="300%" x="-1" y="-1"><feGaussianBlur result="blurOut" stdDeviation="2.0"/><feColorMatrix in="blurOut" result="blurOut2" type="matrix" values="0 0 0 0 0 0 0 0 0 0 0 0 0 0 0 0 0 0 .4 0"/><feOffset dx="4.0" dy="4.0" in="blurOut2" result="blurOut3"/><feBlend in="SourceGraphic" in2="blurOut3" mode="normal"/></filter></defs><g><ellipse cx="339.7005" cy="27.4401" fill="#FEFECE" filter="url(#fv665m66iosm4)" rx="82.7005" ry="18.9401" style="stroke: #A80036; stroke-width: 1.5;"/><text fill="#000000" font-family="sans-serif" font-size="14" lengthAdjust="spacingAndGlyphs" textLength="137" x="271.2005" y="32.0885">manage accounting</text><ellipse cx="339.5329" cy="105.3066" fill="#FEFECE" filter="url(#fv665m66iosm4)" rx="104.5329" ry="23.3066" style="stroke: #A80036; stroke-width: 1.5;"/><text fill="#000000" font-family="sans-serif" font-size="14" lengthAdjust="spacingAndGlyphs" textLength="186" x="246.5329" y="109.955">manage product catalogue</text><ellipse cx="339.4543" cy="180.2909" fill="#FEFECE" filter="url(#fv665m66iosm4)" rx="69.4543" ry="16.2909" style="stroke: #A80036; stroke-width: 1.5;"/><text fill="#000000" font-family="sans-serif" font-size="14" lengthAdjust="spacingAndGlyphs" textLength="105" x="286.9543" y="184.9393">manage orders</text><ellipse cx="339.5624" cy="250.5125" fill="#FEFECE" filter="url(#fv665m66iosm4)" rx="80.5624" ry="18.5125" style="stroke: #A80036; stroke-width: 1.5;"/><text fill="#000000" font-family="sans-serif" font-size="14" lengthAdjust="spacingAndGlyphs" textLength="132" x="273.5624" y="255.1609">manaege suppliers</text><ellipse cx="339.3518" cy="324.5704" fill="#FEFECE" filter="url(#fv665m66iosm4)" rx="88.3518" ry="20.0704" style="stroke: #A80036; stroke-width: 1.5;"/><text fill="#000000" font-family="sans-serif" font-size="14" lengthAdjust="spacingAndGlyphs" textLength="150" x="264.3518" y="329.2188">manage cash register</text><ellipse cx="339.2711" cy="397.2542" fill="#FEFECE" filter="url(#fv665m66iosm4)" rx="76.7711" ry="17.7542" style="stroke: #A80036; stroke-width: 1.5;"/><text fill="#000000" font-family="sans-serif" font-size="14" lengthAdjust="spacingAndGlyphs" textLength="123" x="277.7711" y="401.9027">manage inventory</text><ellipse cx="339.3797" cy="467.6759" fill="#FEFECE" filter="url(#fv665m66iosm4)" rx="73.8797" ry="17.1759" style="stroke: #A80036; stroke-width: 1.5;"/><text fill="#000000" font-family="sans-serif" font-size="14" lengthAdjust="spacingAndGlyphs" textLength="116" x="281.3797" y="472.3244">manage invoices</text><ellipse cx="339.5183" cy="544.5037" fill="#FEFECE" filter="url(#fv665m66iosm4)" rx="110.5183" ry="24.5037" style="stroke: #A80036; stroke-width: 1.5;"/><text fill="#000000" font-family="sans-serif" font-size="14" lengthAdjust="spacingAndGlyphs" textLength="199" x="240.0183" y="549.1521">manage shipping companies</text><ellipse cx="339.6608" cy="627.5322" fill="#FEFECE" filter="url(#fv665m66iosm4)" rx="103.1608" ry="23.0322" style="stroke: #A80036; stroke-width: 1.5;"/><text fill="#000000" font-family="sans-serif" font-size="14" lengthAdjust="spacingAndGlyphs" textLength="183" x="248.1608" y="632.1806">manage sales and refunds</text><ellipse cx="87.5794" cy="703.5159" fill="#FEFECE" filter="url(#fv665m66iosm4)" rx="65.5794" ry="15.5159" style="stroke: #A80036; stroke-width: 1.5;"/><text fill="#000000" font-family="sans-serif" font-size="14" lengthAdjust="spacingAndGlyphs" textLength="95" x="40.0794" y="708.1643">get catalogue</text><ellipse cx="87.6565" cy="768.6313" fill="#FEFECE" filter="url(#fv665m66iosm4)" rx="61.1565" ry="14.6313" style="stroke: #A80036; stroke-width: 1.5;"/><text fill="#000000" font-family="sans-serif" font-size="14" lengthAdjust="spacingAndGlyphs" textLength="83" x="46.1565" y="773.2797">track orders</text><ellipse cx="87.4151" cy="836.683" fill="#FEFECE" filter="url(#fv665m66iosm4)" rx="81.4151" ry="18.683" style="stroke: #A80036; stroke-width: 1.5;"/><text fill="#000000" font-family="sans-serif" font-size="14" lengthAdjust="spacingAndGlyphs" textLength="134" x="20.4151" y="841.3315">authenticate owner</text><ellipse cx="339.2711" cy="703.2542" fill="#FEFECE" filter="url(#fv665m66iosm4)" rx="76.7711" ry="17.7542" style="stroke: #A80036; stroke-width: 1.5;"/><text fill="#000000" font-family="sans-serif" font-size="14" lengthAdjust="spacingAndGlyphs" textLength="123" x="277.7711" y="707.9027">change password</text><ellipse cx="339.6543" cy="771.5236" fill="#FEFECE" filter="url(#fv665m66iosm4)" rx="58.1543" ry="14.5236" style="stroke: #A80036; stroke-width: 1.5;"/><text fill="#000000" font-family="sans-serif" font-size="14" lengthAdjust="spacingAndGlyphs" textLength="78" x="300.6543" y="776.1721">import data</text><ellipse cx="339.6543" cy="835.5236" fill="#FEFECE" filter="url(#fv665m66iosm4)" rx="58.1543" ry="14.5236" style="stroke: #A80036; stroke-width: 1.5;"/><text fill="#000000" font-family="sans-serif" font-size="14" lengthAdjust="spacingAndGlyphs" textLength="78" x="300.6543" y="840.1721">export data</text><!--MD5=[55f2968de154b8cc740615bf6e5af92f]
entity owner--><ellipse cx="87.5" cy="293.5" fill="#FEFECE" filter="url(#fv665m66iosm4)" rx="8" ry="8" style="stroke: #A80036; stroke-width: 1.5;"/><path d="M87.5,301.5 L87.5,328.5 M74.5,309.5 L100.5,309.5 M87.5,328.5 L74.5,343.5 M87.5,328.5 L100.5,343.5 " fill="none" filter="url(#fv665m66iosm4)" style="stroke: #A80036; stroke-width: 1.5;"/><text fill="#000000" font-family="sans-serif" font-size="14" lengthAdjust="spacingAndGlyphs" textLength="43" x="66" y="361.9951">owner</text><!--MD5=[e0ce3f04a84c4e9839cbbe02ae2dfcd5]
entity pos--><ellipse cx="602" cy="672.5" fill="#FEFECE" filter="url(#fv665m66iosm4)" rx="8" ry="8" style="stroke: #A80036; stroke-width: 1.5;"/><path d="M602,680.5 L602,707.5 M589,688.5 L615,688.5 M602,707.5 L589,722.5 M602,707.5 L615,722.5 " fill="none" filter="url(#fv665m66iosm4)" style="stroke: #A80036; stroke-width: 1.5;"/><text fill="#000000" font-family="sans-serif" font-size="14" lengthAdjust="spacingAndGlyphs" textLength="89" x="557.5" y="740.9951">POS provider</text><!--MD5=[d5096230de5c7e9b5a3d1997ba7f37f3]
entity cs--><ellipse cx="602" cy="788.5" fill="#FEFECE" filter="url(#fv665m66iosm4)" rx="8" ry="8" style="stroke: #A80036; stroke-width: 1.5;"/><path d="M602,796.5 L602,823.5 M589,804.5 L615,804.5 M602,823.5 L589,838.5 M602,823.5 L615,838.5 " fill="none" filter="url(#fv665m66iosm4)" style="stroke: #A80036; stroke-width: 1.5;"/><text fill="#000000" font-family="sans-serif" font-size="14" lengthAdjust="spacingAndGlyphs" textLength="90" x="557" y="856.9951">cash register</text><!--MD5=[bcb06b6d3c69a8cc25a1eea99eeb0433]
entity stp--><ellipse cx="602" cy="904.5" fill="#FEFECE" filter="url(#fv665m66iosm4)" rx="8" ry="8" style="stroke: #A80036; stroke-width: 1.5;"/><path d="M602,912.5 L602,939.5 M589,920.5 L615,920.5 M602,939.5 L589,954.5 M602,939.5 L615,954.5 " fill="none" filter="url(#fv665m66iosm4)" style="stroke: #A80036; stroke-width: 1.5;"/><text fill="#000000" font-family="sans-serif" font-size="14" lengthAdjust="spacingAndGlyphs" textLength="184" x="510" y="972.9951">shipment tracking provider</text><!--MD5=[3423871069a8e5f5f24bc0548f0f110c]
link owner to mnga--><path d="M100.08,283.68 C118.3,226.66 158.99,123.54 229,64.5 C241.06,54.33 256.04,46.92 271.01,41.53 " fill="none" id="owner-&gt;mnga" style="stroke: #A80036; stroke-width: 1.0;"/><polygon fill="#A80036" points="276.08,39.78,266.268,38.9288,271.3525,41.4082,268.8731,46.4927,276.08,39.78" style="stroke: #A80036; stroke-width: 1.0;"/><!--MD5=[8f6c924f99e5122d3794e0d13c91dad7]
link owner to mngc--><path d="M109.03,287.89 C133.07,248.05 176.37,184.91 229,146.5 C240.54,138.08 254,131.19 267.47,125.63 " fill="none" id="owner-&gt;mngc" style="stroke: #A80036; stroke-width: 1.0;"/><polygon fill="#A80036" points="272.42,123.64,262.5772,123.2947,267.7826,125.5092,265.568,130.7146,272.42,123.64" style="stroke: #A80036; stroke-width: 1.0;"/><!--MD5=[a435f4b43c5b275008831119dfcc4050]
link owner to mngo--><path d="M109.16,304.3 C135.15,279.91 182.08,239.09 229,214.5 C246,205.59 265.73,198.57 283.73,193.28 " fill="none" id="owner-&gt;mngo" style="stroke: #A80036; stroke-width: 1.0;"/><polygon fill="#A80036" points="288.75,191.83,278.9947,190.4755,283.9451,193.213,281.2076,198.1634,288.75,191.83" style="stroke: #A80036; stroke-width: 1.0;"/><!--MD5=[3942124d668f3590fa7a92c17aa07483]
link owner to mngs--><path d="M109.38,318.32 C147.55,307.02 229.66,282.72 284.49,266.49 " fill="none" id="owner-&gt;mngs" style="stroke: #A80036; stroke-width: 1.0;"/><polygon fill="#A80036" points="289.38,265.04,279.6164,263.7468,284.5839,266.4531,281.8775,271.4206,289.38,265.04" style="stroke: #A80036; stroke-width: 1.0;"/><!--MD5=[7258924fad32647a6d4b9098c05762b4]
link owner to mngcs--><path d="M109.38,324.5 C139.28,324.5 196.15,324.5 245.75,324.5 " fill="none" id="owner-&gt;mngcs" style="stroke: #A80036; stroke-width: 1.0;"/><polygon fill="#A80036" points="250.83,324.5,241.83,320.5,245.83,324.5,241.83,328.5,250.83,324.5" style="stroke: #A80036; stroke-width: 1.0;"/><!--MD5=[ce76f01f6443e9777c21c0ce9c50234f]
link owner to mngiv--><path d="M109.38,330.6 C147.77,341.81 230.64,366 285.47,382.02 " fill="none" id="owner-&gt;mngiv" style="stroke: #A80036; stroke-width: 1.0;"/><polygon fill="#A80036" points="290.36,383.44,282.84,377.08,285.56,382.04,280.6,384.76,290.36,383.44" style="stroke: #A80036; stroke-width: 1.0;"/><!--MD5=[a029d056ac1441573606a0542ed42700]
link owner to mngio--><path d="M109.27,344.24 C135.36,368.11 182.39,408.1 229,432.5 C245.73,441.26 265.05,448.32 282.76,453.75 " fill="none" id="owner-&gt;mngio" style="stroke: #A80036; stroke-width: 1.0;"/><polygon fill="#A80036" points="287.7,455.24,280.2377,448.8123,282.9128,453.7967,277.9285,456.4718,287.7,455.24" style="stroke: #A80036; stroke-width: 1.0;"/><!--MD5=[17fbf98b018942627e4918dda06dc408]
link owner to mngsc--><path d="M109.19,360.74 C133.37,400.22 176.8,462.88 229,501.5 C240.55,510.05 254.02,517.14 267.49,522.94 " fill="none" id="owner-&gt;mngsc" style="stroke: #A80036; stroke-width: 1.0;"/><polygon fill="#A80036" points="272.45,525.02,265.6886,517.8587,267.8367,523.0919,262.6036,525.24,272.45,525.02" style="stroke: #A80036; stroke-width: 1.0;"/><!--MD5=[164c69a7396055fc440bb6c31b399983]
link owner to mngsr--><path d="M100.26,365.32 C118.7,422.41 159.64,525.86 229,586.5 C239.48,595.66 252.2,602.86 265.22,608.48 " fill="none" id="owner-&gt;mngsr" style="stroke: #A80036; stroke-width: 1.0;"/><polygon fill="#A80036" points="270.02,610.49,263.2586,603.3287,265.4067,608.5619,260.1736,610.71,270.02,610.49" style="stroke: #A80036; stroke-width: 1.0;"/><!--MD5=[cad98bbeda7f1c133f8d84e32a5c4ba7]
link getc to tracko--><!--MD5=[48ad9497fedaf8c641992d18246207c4]
link tracko to auth--><!--MD5=[13ece4f2206abea7e24468b9a764e0d0]
link getc to password--><!--MD5=[72f5693a3af0ce66f4e33f76252cded3]
link password to import--><!--MD5=[ef28d7145eb41f0e2175f25a3e2c52aa]
link import to export--><!--MD5=[5b3da61c1689b59dcaa03942c0ee933d]
link password to pos--><!--MD5=[8a6cce3ca18f57523a07243bba59815d]
link pos to cs--><!--MD5=[2672a480c17d69e3d40e854322e2e66c]
link cs to stp--><!--MD5=[719163ccce8dda63937e31613dd83c63]
@startuml
left to right direction 
!pragma layout smetana
skinparam backgroundColor #fcf7f2

usecase "manage accounting" as mnga
usecase "manage product catalogue" as mngc
usecase "manage orders" as mngo
usecase "manaege suppliers" as mngs
usecase "manage cash register" as mngcs
usecase "manage inventory" as mngiv
usecase "manage invoices" as mngio
usecase "manage shipping companies" as mngsc
usecase "manage sales and refunds" as mngsr

usecase "get catalogue" as getc
usecase "track orders" as tracko

usecase "authenticate owner" as auth
usecase "change password" as password

usecase "import data" as import
usecase "export data" as export


actor owner
actor "POS provider" as pos
actor "cash register" as cs
actor "shipment tracking provider" as stp


owner - -> mnga
owner - -> mngc
owner - -> mngo
owner - -> mngs
owner - -> mngcs
owner - -> mngiv
owner - -> mngio
owner - -> mngsc
owner - -> mngsr

@enduml

PlantUML version 1.2020.02(Sun Mar 01 11:22:07 CET 2020)
(GPL source distribution)
Java Runtime: OpenJDK Runtime Environment
JVM: OpenJDK 64-Bit Server VM
Java Version: 21.0.8+9-Ubuntu-0ubuntu122.04.1
Operating System: Linux
Default Encoding: UTF-8
Language: en
Country: GB
--></g></svg>