<?xml version="1.0" encoding="UTF-8" standalone="no"?><svg xmlns="http://www.w3.org/2000/svg" xmlns:xlink="http://www.w3.org/1999/xlink" contentScriptType="application/ecmascript" contentStyleType="text/css" height="305px" preserveAspectRatio="none" style="width:946px;height:305px;" version="1.1" viewBox="0 0 946 305" width="946px" zoomAndPan="magnify"><defs><filter height="300%" id="f13beft0jm75br" width="300%" x="-1" y="-1"><feGaussianBlur result="blurOut" stdDeviation="2.0"/><feColorMatrix in="blurOut" result="blurOut2" type="matrix" values="0 0 0 0 0 0 0 0 0 0 0 0 0 0 0 0 0 0 .4 0"/><feOffset dx="4.0" dy="4.0" in="blurOut2" result="blurOut3"/><feBlend in="SourceGraphic" in2="blurOut3" mode="normal"/></filter></defs><g><!--MD5=[c1fe354191168b098bc4322397caaff0]
entity POS--><rect fill="#FEFECE" filter="url(#f13beft0jm75br)" height="39.2969" style="stroke: #000000; stroke-width: 1.5;" width="112" x="202.5" y="8"/><polygon fill="#FEFECE" points="297.5,13,297.5,27,309.5,27,309.5,19,303.5,13,297.5,13" style="stroke: #000000; stroke-width: 1.5;"/><line style="stroke: #000000; stroke-width: 1.5;" x1="303.5" x2="303.5" y1="13" y2="19"/><line style="stroke: #000000; stroke-width: 1.5;" x1="309.5" x2="303.5" y1="19" y2="19"/><text fill="#000000" font-family="sans-serif" font-size="14" lengthAdjust="spacingAndGlyphs" textLength="82" x="212.5" y="33.9951">POS service</text><!--MD5=[fc1deef60cc46bea074b5c7ccdba8ad9]
entity EzShopWinApp--><rect fill="#FEFECE" filter="url(#f13beft0jm75br)" height="39.2969" style="stroke: #000000; stroke-width: 1.5;" width="179" x="516" y="8"/><polygon fill="#FEFECE" points="678,13,678,27,690,27,690,19,684,13,678,13" style="stroke: #000000; stroke-width: 1.5;"/><line style="stroke: #000000; stroke-width: 1.5;" x1="684" x2="684" y1="13" y2="19"/><line style="stroke: #000000; stroke-width: 1.5;" x1="690" x2="684" y1="19" y2="19"/><text fill="#000000" font-family="sans-serif" font-size="14" lengthAdjust="spacingAndGlyphs" textLength="149" x="526" y="33.9951">EzShop Windows app</text><!--MD5=[4f3ee25541e4605a98ad4c4c2c540c47]
entity OrderTracking--><rect fill="#FEFECE" filter="url(#f13beft0jm75br)" height="39.2969" style="stroke: #000000; stroke-width: 1.5;" width="181" x="748" y="127.5"/><polygon fill="#FEFECE" points="912,132.5,912,146.5,924,146.5,924,138.5,918,132.5,912,132.5" style="stroke: #000000; stroke-width: 1.5;"/><line style="stroke: #000000; stroke-width: 1.5;" x1="918" x2="918" y1="132.5" y2="138.5"/><line style="stroke: #000000; stroke-width: 1.5;" x1="924" x2="918" y1="138.5" y2="138.5"/><text fill="#000000" font-family="sans-serif" font-size="14" lengthAdjust="spacingAndGlyphs" textLength="151" x="758" y="153.4951">Order tracking service</text><!--MD5=[95a24360087fe5881b67855ecbd2a712]
entity DBService--><rect fill="#FEFECE" filter="url(#f13beft0jm75br)" height="39.2969" style="stroke: #000000; stroke-width: 1.5;" width="104" x="359.5" y="127.5"/><polygon fill="#FEFECE" points="446.5,132.5,446.5,146.5,458.5,146.5,458.5,138.5,452.5,132.5,446.5,132.5" style="stroke: #000000; stroke-width: 1.5;"/><line style="stroke: #000000; stroke-width: 1.5;" x1="452.5" x2="452.5" y1="132.5" y2="138.5"/><line style="stroke: #000000; stroke-width: 1.5;" x1="458.5" x2="452.5" y1="138.5" y2="138.5"/><text fill="#000000" font-family="sans-serif" font-size="14" lengthAdjust="spacingAndGlyphs" textLength="74" x="369.5" y="153.4951">DB service</text><!--MD5=[0e0df8464bdf3d4064b9d3b606cf8f8a]
entity EzShopBackEnd--><rect fill="#FEFECE" filter="url(#f13beft0jm75br)" height="39.2969" style="stroke: #000000; stroke-width: 1.5;" width="151" x="6" y="127.5"/><polygon fill="#FEFECE" points="140,132.5,140,146.5,152,146.5,152,138.5,146,132.5,140,132.5" style="stroke: #000000; stroke-width: 1.5;"/><line style="stroke: #000000; stroke-width: 1.5;" x1="146" x2="146" y1="132.5" y2="138.5"/><line style="stroke: #000000; stroke-width: 1.5;" x1="152" x2="146" y1="138.5" y2="138.5"/><text fill="#000000" font-family="sans-serif" font-size="14" lengthAdjust="spacingAndGlyphs" textLength="121" x="16" y="153.4951">EzShop back end</text><!--MD5=[2c15e59a3989bb566717477fd0b9a444]
entity CashRegister--><polygon fill="#FEFECE" filter="url(#f13beft0jm75br)" points="192.5,134,202.5,124,324.5,124,324.5,160.2969,314.5,170.2969,192.5,170.2969,192.5,134" style="stroke: #000000; stroke-width: 1.5;"/><line style="stroke: #000000; stroke-width: 1.5;" x1="314.5" x2="323.5" y1="134" y2="125"/><line style="stroke: #000000; stroke-width: 1.5;" x1="192.5" x2="314.5" y1="134" y2="134"/><line style="stroke: #000000; stroke-width: 1.5;" x1="314.5" x2="314.5" y1="134" y2="170.2969"/><text fill="#000000" font-family="sans-serif" font-size="14" lengthAdjust="spacingAndGlyphs" textLength="92" x="207.5" y="156.9951">Cash register</text><!--MD5=[7cdefa67c1b6ba318d3e022a64440849]
entity ClientPC--><polygon fill="#FEFECE" filter="url(#f13beft0jm75br)" points="498.5,134,508.5,124,712.5,124,712.5,160.2969,702.5,170.2969,498.5,170.2969,498.5,134" style="stroke: #000000; stroke-width: 1.5;"/><line style="stroke: #000000; stroke-width: 1.5;" x1="702.5" x2="711.5" y1="134" y2="125"/><line style="stroke: #000000; stroke-width: 1.5;" x1="498.5" x2="702.5" y1="134" y2="134"/><line style="stroke: #000000; stroke-width: 1.5;" x1="702.5" x2="702.5" y1="134" y2="170.2969"/><text fill="#000000" font-family="sans-serif" font-size="14" lengthAdjust="spacingAndGlyphs" textLength="174" x="513.5" y="156.9951">client Windows computer</text><!--MD5=[9f0a282625fabf6fba45a11ffc5a79fb]
entity ShippingService--><polygon fill="#FEFECE" filter="url(#f13beft0jm75br)" points="552.5,257,562.5,247,772.5,247,772.5,283.2969,762.5,293.2969,552.5,293.2969,552.5,257" style="stroke: #000000; stroke-width: 1.5;"/><line style="stroke: #000000; stroke-width: 1.5;" x1="762.5" x2="771.5" y1="257" y2="248"/><line style="stroke: #000000; stroke-width: 1.5;" x1="552.5" x2="762.5" y1="257" y2="257"/><line style="stroke: #000000; stroke-width: 1.5;" x1="762.5" x2="762.5" y1="257" y2="293.2969"/><text fill="#000000" font-family="sans-serif" font-size="14" lengthAdjust="spacingAndGlyphs" textLength="180" x="567.5" y="279.9951">Shipping company service</text><!--MD5=[99c3b1002d1e51a85ab6a37bc85c0c8b]
entity EzShopServer--><polygon fill="#FEFECE" filter="url(#f13beft0jm75br)" points="333.5,257,343.5,247,473.5,247,473.5,283.2969,463.5,293.2969,333.5,293.2969,333.5,257" style="stroke: #000000; stroke-width: 1.5;"/><line style="stroke: #000000; stroke-width: 1.5;" x1="463.5" x2="472.5" y1="257" y2="248"/><line style="stroke: #000000; stroke-width: 1.5;" x1="333.5" x2="463.5" y1="257" y2="257"/><line style="stroke: #000000; stroke-width: 1.5;" x1="463.5" x2="463.5" y1="257" y2="293.2969"/><text fill="#000000" font-family="sans-serif" font-size="14" lengthAdjust="spacingAndGlyphs" textLength="100" x="348.5" y="279.9951">EzShop server</text><!--MD5=[1bad6e35b7298d86baccf2f7adfb60c6]
link POS to CashRegister--><path d="M258.5,47.12 C258.5,66.41 258.5,96.76 258.5,118.75 " fill="none" id="POS-&gt;CashRegister" style="stroke: #0000FF; stroke-width: 1.0; stroke-dasharray: 7.0,7.0;"/><polygon fill="#0000FF" points="258.5,123.86,262.5,114.86,258.5,118.86,254.5,114.86,258.5,123.86" style="stroke: #0000FF; stroke-width: 1.0;"/><text fill="#000000" font-family="sans-serif" font-size="13" lengthAdjust="spacingAndGlyphs" textLength="58" x="259.5" y="90.0669">«deploy»</text><!--MD5=[72e96444d4a4f00df5573a83399926d8]
link EzShopWinApp to ClientPC--><path d="M605.5,47.12 C605.5,66.41 605.5,96.76 605.5,118.75 " fill="none" id="EzShopWinApp-&gt;ClientPC" style="stroke: #0000FF; stroke-width: 1.0; stroke-dasharray: 7.0,7.0;"/><polygon fill="#0000FF" points="605.5,123.86,609.5,114.86,605.5,118.86,601.5,114.86,605.5,123.86" style="stroke: #0000FF; stroke-width: 1.0;"/><text fill="#000000" font-family="sans-serif" font-size="13" lengthAdjust="spacingAndGlyphs" textLength="58" x="606.5" y="90.0669">«deploy»</text><!--MD5=[ee0f1c2f4b5f1c9856224f8aad1df42d]
link OrderTracking to ShippingService--><path d="M811.39,166.64 C781.3,187.32 732.6,220.81 699.14,243.81 " fill="none" id="OrderTracking-&gt;ShippingService" style="stroke: #0000FF; stroke-width: 1.0; stroke-dasharray: 7.0,7.0;"/><polygon fill="#0000FF" points="694.73,246.85,704.4082,245.0246,698.8435,244.0077,699.8605,238.443,694.73,246.85" style="stroke: #0000FF; stroke-width: 1.0;"/><text fill="#000000" font-family="sans-serif" font-size="13" lengthAdjust="spacingAndGlyphs" textLength="58" x="761.5" y="213.0669">«deploy»</text><!--MD5=[673bbb0915e60afd936c60a4d17cccfa]
link DBService to EzShopServer--><path d="M410.27,166.64 C408.94,186.73 406.81,218.9 405.3,241.82 " fill="none" id="DBService-&gt;EzShopServer" style="stroke: #0000FF; stroke-width: 1.0; stroke-dasharray: 7.0,7.0;"/><polygon fill="#0000FF" points="404.96,246.85,409.5432,238.1325,405.2888,241.8608,401.5605,237.6064,404.96,246.85" style="stroke: #0000FF; stroke-width: 1.0;"/><text fill="#000000" font-family="sans-serif" font-size="13" lengthAdjust="spacingAndGlyphs" textLength="58" x="409.5" y="213.0669">«deploy»</text><!--MD5=[a2daa69bf67e7650f9d3e86fab5061fd]
link EzShopBackEnd to EzShopServer--><path d="M126.46,166.56 C161.25,180.77 210.73,200.64 254.5,217 C280.12,226.58 308.43,236.59 333.42,245.25 " fill="none" id="EzShopBackEnd-&gt;EzShopServer" style="stroke: #0000FF; stroke-width: 1.0; stroke-dasharray: 7.0,7.0;"/><polygon fill="#0000FF" points="338.37,246.96,331.1812,240.2279,333.6469,245.3191,328.5557,247.7848,338.37,246.96" style="stroke: #0000FF; stroke-width: 1.0;"/><text fill="#000000" font-family="sans-serif" font-size="13" lengthAdjust="spacingAndGlyphs" textLength="58" x="255.5" y="213.0669">«deploy»</text><!--MD5=[8e2c10ccfd7a2bb65674de2c2408a9a8]
link CashRegister to EzShopServer--><path d="M285.1,170.19 C309.93,190.92 346.97,221.83 372.99,243.54 " fill="none" id="CashRegister-&gt;EzShopServer" style="stroke: #A80036; stroke-width: 1.0;"/><polygon fill="#A80036" points="377.07,246.95,372.7329,238.1075,373.2347,243.7421,367.6002,244.2439,377.07,246.95" style="stroke: #A80036; stroke-width: 1.0;"/><ellipse cx="346.5" cy="209.0664" fill="none" rx="3" ry="3" style="stroke: #038048; stroke-width: 1.0;"/><text fill="#000000" font-family="sans-serif" font-size="13" lengthAdjust="spacingAndGlyphs" textLength="44" x="353.5" y="213.0669">lan link</text><!--MD5=[75046ab8b8fed1aeee02eb2b7e72420a]
link ClientPC to EzShopServer--><path d="M568.45,170.19 C533.43,191.17 480.97,222.59 444.66,244.34 " fill="none" id="ClientPC-&gt;EzShopServer" style="stroke: #A80036; stroke-width: 1.0;"/><polygon fill="#A80036" points="440.32,246.95,450.0983,245.7735,444.6138,244.3881,445.9992,238.9035,440.32,246.95" style="stroke: #A80036; stroke-width: 1.0;"/><ellipse cx="523.5" cy="209.0664" fill="none" rx="3" ry="3" style="stroke: #038048; stroke-width: 1.0;"/><text fill="#000000" font-family="sans-serif" font-size="13" lengthAdjust="spacingAndGlyphs" textLength="44" x="530.5" y="213.0669">lan link</text><!--MD5=[526bfa4203049fc7df61fed76a9126d5]
link ClientPC to ShippingService--><path d="M615.95,170.19 C625.52,190.49 639.68,220.56 649.87,242.19 " fill="none" id="ClientPC-&gt;ShippingService" style="stroke: #A80036; stroke-width: 1.0;"/><polygon fill="#A80036" points="652.11,246.95,651.8896,237.1036,649.9776,242.4275,644.6536,240.5155,652.11,246.95" style="stroke: #A80036; stroke-width: 1.0;"/><ellipse cx="642.5" cy="209.0664" fill="none" rx="3" ry="3" style="stroke: #038048; stroke-width: 1.0;"/><text fill="#000000" font-family="sans-serif" font-size="13" lengthAdjust="spacingAndGlyphs" textLength="75" x="649.5" y="213.0669">internet link</text><!--MD5=[31498a4303564d3a38c976eafe89707b]
@startuml
artifact "POS service" as POS
artifact "EzShop Windows app" as EzShopWinApp
artifact "Order tracking service" as OrderTracking
artifact "DB service" as DBService
artifact "EzShop back end" as EzShopBackEnd

node "Cash register" as CashRegister
node "client Windows computer" as ClientPC
node "Shipping company service" as ShippingService
node "EzShop server" as EzShopServer

POS -[#0000FF,dashed]-> CashRegister : <<deploy>>
EzShopWinApp -[#0000FF,dashed]-> ClientPC : <<deploy>>
OrderTracking -[#0000FF,dashed]-> ShippingService : <<deploy>>
DBService -[#0000FF,dashed]-> EzShopServer : <<deploy>>
EzShopBackEnd -[#0000FF,dashed]-> EzShopServer : <<deploy>>

CashRegister - -> EzShopServer : +lan link
ClientPC - -> EzShopServer : +lan link
ClientPC - -> ShippingService : +internet link
@enduml

PlantUML version 1.2020.02(Sun Mar 01 11:22:07 CET 2020)
(GPL source distribution)
Java Runtime: OpenJDK Runtime Environment
JVM: OpenJDK 64-Bit Server VM
Java Version: 21.0.8+9-Ubuntu-0ubuntu122.04.1
Operating System: Linux
Default Encoding: UTF-8
Language: en
Country: GB
--></g></svg>