<?xml version="1.0" encoding="UTF-8" standalone="no"?><svg xmlns="http://www.w3.org/2000/svg" xmlns:xlink="http://www.w3.org/1999/xlink" contentScriptType="application/ecmascript" contentStyleType="text/css" height="1161px" preserveAspectRatio="none" style="width:768px;height:1161px;background:#FCF7F2;" version="1.1" viewBox="0 0 768 1161" width="768px" zoomAndPan="magnify"><defs><filter height="300%" id="f18ijb5v1w5cf1" width="300%" x="-1" y="-1"><feGaussianBlur result="blurOut" stdDeviation="2.0"/><feColorMatrix in="blurOut" result="blurOut2" type="matrix" values="0 0 0 0 0 0 0 0 0 0 0 0 0 0 0 0 0 0 .4 0"/><feOffset dx="4.0" dy="4.0" in="blurOut2" result="blurOut3"/><feBlend in="SourceGraphic" in2="blurOut3" mode="normal"/></filter></defs><g><ellipse cx="361.7005" cy="475.4401" fill="#FEFECE" filter="url(#f18ijb5v1w5cf1)" rx="82.7005" ry="18.9401" style="stroke: #A80036; stroke-width: 1.5;"/><text fill="#000000" font-family="sans-serif" font-size="14" lengthAdjust="spacingAndGlyphs" textLength="137" x="293.2005" y="480.0885">manage accounting</text><ellipse cx="361.5329" cy="553.3066" fill="#FEFECE" filter="url(#f18ijb5v1w5cf1)" rx="104.5329" ry="23.3066" style="stroke: #A80036; stroke-width: 1.5;"/><text fill="#000000" font-family="sans-serif" font-size="14" lengthAdjust="spacingAndGlyphs" textLength="186" x="268.5329" y="557.955">manage product catalogue</text><ellipse cx="361.4543" cy="628.2909" fill="#FEFECE" filter="url(#f18ijb5v1w5cf1)" rx="69.4543" ry="16.2909" style="stroke: #A80036; stroke-width: 1.5;"/><text fill="#000000" font-family="sans-serif" font-size="14" lengthAdjust="spacingAndGlyphs" textLength="105" x="308.9543" y="632.9393">manage orders</text><ellipse cx="361.2711" cy="698.2542" fill="#FEFECE" filter="url(#f18ijb5v1w5cf1)" rx="76.7711" ry="17.7542" style="stroke: #A80036; stroke-width: 1.5;"/><text fill="#000000" font-family="sans-serif" font-size="14" lengthAdjust="spacingAndGlyphs" textLength="123" x="299.7711" y="702.9027">manage suppliers</text><ellipse cx="361.3518" cy="330.5704" fill="#FEFECE" filter="url(#f18ijb5v1w5cf1)" rx="88.3518" ry="20.0704" style="stroke: #A80036; stroke-width: 1.5;"/><text fill="#000000" font-family="sans-serif" font-size="14" lengthAdjust="spacingAndGlyphs" textLength="150" x="286.3518" y="335.2188">manage cash register</text><ellipse cx="361.2711" cy="842.2542" fill="#FEFECE" filter="url(#f18ijb5v1w5cf1)" rx="76.7711" ry="17.7542" style="stroke: #A80036; stroke-width: 1.5;"/><text fill="#000000" font-family="sans-serif" font-size="14" lengthAdjust="spacingAndGlyphs" textLength="123" x="299.7711" y="846.9027">manage inventory</text><ellipse cx="361.3797" cy="912.6759" fill="#FEFECE" filter="url(#f18ijb5v1w5cf1)" rx="73.8797" ry="17.1759" style="stroke: #A80036; stroke-width: 1.5;"/><text fill="#000000" font-family="sans-serif" font-size="14" lengthAdjust="spacingAndGlyphs" textLength="116" x="303.3797" y="917.3244">manage invoices</text><ellipse cx="361.5183" cy="989.5037" fill="#FEFECE" filter="url(#f18ijb5v1w5cf1)" rx="110.5183" ry="24.5037" style="stroke: #A80036; stroke-width: 1.5;"/><text fill="#000000" font-family="sans-serif" font-size="14" lengthAdjust="spacingAndGlyphs" textLength="199" x="262.0183" y="994.1521">manage shipping companies</text><ellipse cx="361.6608" cy="121.5322" fill="#FEFECE" filter="url(#f18ijb5v1w5cf1)" rx="103.1608" ry="23.0322" style="stroke: #A80036; stroke-width: 1.5;"/><text fill="#000000" font-family="sans-serif" font-size="14" lengthAdjust="spacingAndGlyphs" textLength="183" x="270.1608" y="126.1806">manage sales and refunds</text><ellipse cx="361.5794" cy="195.5159" fill="#FEFECE" filter="url(#f18ijb5v1w5cf1)" rx="65.5794" ry="15.5159" style="stroke: #A80036; stroke-width: 1.5;"/><text fill="#000000" font-family="sans-serif" font-size="14" lengthAdjust="spacingAndGlyphs" textLength="95" x="314.0794" y="200.1643">get catalogue</text><ellipse cx="361.6565" cy="48.6313" fill="#FEFECE" filter="url(#f18ijb5v1w5cf1)" rx="61.1565" ry="14.6313" style="stroke: #A80036; stroke-width: 1.5;"/><text fill="#000000" font-family="sans-serif" font-size="14" lengthAdjust="spacingAndGlyphs" textLength="83" x="320.1565" y="53.2797">track orders</text><ellipse cx="676.4151" cy="698.683" fill="#FEFECE" filter="url(#f18ijb5v1w5cf1)" rx="81.4151" ry="18.683" style="stroke: #A80036; stroke-width: 1.5;"/><text fill="#000000" font-family="sans-serif" font-size="14" lengthAdjust="spacingAndGlyphs" textLength="134" x="609.4151" y="703.3315">authenticate owner</text><ellipse cx="361.2711" cy="1067.2542" fill="#FEFECE" filter="url(#f18ijb5v1w5cf1)" rx="76.7711" ry="17.7542" style="stroke: #A80036; stroke-width: 1.5;"/><text fill="#000000" font-family="sans-serif" font-size="14" lengthAdjust="spacingAndGlyphs" textLength="123" x="299.7711" y="1071.9027">change password</text><ellipse cx="361.6543" cy="1135.5236" fill="#FEFECE" filter="url(#f18ijb5v1w5cf1)" rx="58.1543" ry="14.5236" style="stroke: #A80036; stroke-width: 1.5;"/><text fill="#000000" font-family="sans-serif" font-size="14" lengthAdjust="spacingAndGlyphs" textLength="78" x="322.6543" y="1140.1721">import data</text><ellipse cx="361.6543" cy="260.5236" fill="#FEFECE" filter="url(#f18ijb5v1w5cf1)" rx="58.1543" ry="14.5236" style="stroke: #A80036; stroke-width: 1.5;"/><text fill="#000000" font-family="sans-serif" font-size="14" lengthAdjust="spacingAndGlyphs" textLength="78" x="322.6543" y="265.1721">export data</text><ellipse cx="361.5253" cy="403.5051" fill="#FEFECE" filter="url(#f18ijb5v1w5cf1)" rx="75.5253" ry="17.5051" style="stroke: #A80036; stroke-width: 1.5;"/><text fill="#000000" font-family="sans-serif" font-size="14" lengthAdjust="spacingAndGlyphs" textLength="120" x="301.5253" y="408.1535">retrieve data data</text><ellipse cx="361.2901" cy="770.258" fill="#FEFECE" filter="url(#f18ijb5v1w5cf1)" rx="79.2901" ry="18.258" style="stroke: #A80036; stroke-width: 1.5;"/><text fill="#000000" font-family="sans-serif" font-size="14" lengthAdjust="spacingAndGlyphs" textLength="129" x="296.7901" y="774.9065">receive notification</text><!--MD5=[55f2968de154b8cc740615bf6e5af92f]
entity owner--><ellipse cx="98" cy="667.5" fill="#FEFECE" filter="url(#f18ijb5v1w5cf1)" rx="8" ry="8" style="stroke: #A80036; stroke-width: 1.5;"/><path d="M98,675.5 L98,702.5 M85,683.5 L111,683.5 M98,702.5 L85,717.5 M98,702.5 L111,717.5 " fill="none" filter="url(#f18ijb5v1w5cf1)" style="stroke: #A80036; stroke-width: 1.5;"/><text fill="#000000" font-family="sans-serif" font-size="14" lengthAdjust="spacingAndGlyphs" textLength="43" x="76.5" y="735.9951">owner</text><!--MD5=[e0ce3f04a84c4e9839cbbe02ae2dfcd5]
entity pos--><ellipse cx="98" cy="299.5" fill="#FEFECE" filter="url(#f18ijb5v1w5cf1)" rx="8" ry="8" style="stroke: #A80036; stroke-width: 1.5;"/><path d="M98,307.5 L98,334.5 M85,315.5 L111,315.5 M98,334.5 L85,349.5 M98,334.5 L111,349.5 " fill="none" filter="url(#f18ijb5v1w5cf1)" style="stroke: #A80036; stroke-width: 1.5;"/><text fill="#000000" font-family="sans-serif" font-size="14" lengthAdjust="spacingAndGlyphs" textLength="89" x="53.5" y="367.9951">POS provider</text><!--MD5=[d5096230de5c7e9b5a3d1997ba7f37f3]
entity cs--><ellipse cx="98" cy="149.5" fill="#FEFECE" filter="url(#f18ijb5v1w5cf1)" rx="8" ry="8" style="stroke: #A80036; stroke-width: 1.5;"/><path d="M98,157.5 L98,184.5 M85,165.5 L111,165.5 M98,184.5 L85,199.5 M98,184.5 L111,199.5 " fill="none" filter="url(#f18ijb5v1w5cf1)" style="stroke: #A80036; stroke-width: 1.5;"/><text fill="#000000" font-family="sans-serif" font-size="14" lengthAdjust="spacingAndGlyphs" textLength="90" x="53" y="217.9951">cash register</text><!--MD5=[bcb06b6d3c69a8cc25a1eea99eeb0433]
entity stp--><ellipse cx="98" cy="17.5" fill="#FEFECE" filter="url(#f18ijb5v1w5cf1)" rx="8" ry="8" style="stroke: #A80036; stroke-width: 1.5;"/><path d="M98,25.5 L98,52.5 M85,33.5 L111,33.5 M98,52.5 L85,67.5 M98,52.5 L111,67.5 " fill="none" filter="url(#f18ijb5v1w5cf1)" style="stroke: #A80036; stroke-width: 1.5;"/><text fill="#000000" font-family="sans-serif" font-size="14" lengthAdjust="spacingAndGlyphs" textLength="184" x="6" y="85.9951">shipment tracking provider</text><!--MD5=[3423871069a8e5f5f24bc0548f0f110c]
link owner to mnga--><path d="M119.66,662.56 C145.38,620.83 193.06,552.63 251,512.5 C264.75,502.97 281.16,495.73 297.04,490.29 " fill="none" id="owner-&gt;mnga" style="stroke: #A80036; stroke-width: 1.0;"/><polygon fill="#A80036" points="301.95,488.66,292.1495,487.6848,297.2023,490.2283,294.6588,495.2811,301.95,488.66" style="stroke: #A80036; stroke-width: 1.0;"/><!--MD5=[8f6c924f99e5122d3794e0d13c91dad7]
link owner to mngc--><path d="M119.62,681.98 C147.95,659.87 201.06,620.44 251,594.5 C265.28,587.08 281.23,580.32 296.43,574.53 " fill="none" id="owner-&gt;mngc" style="stroke: #A80036; stroke-width: 1.0;"/><polygon fill="#A80036" points="301.12,572.76,291.2865,572.211,296.4448,574.5328,294.123,579.6912,301.12,572.76" style="stroke: #A80036; stroke-width: 1.0;"/><!--MD5=[a435f4b43c5b275008831119dfcc4050]
link owner to mngo--><path d="M119.52,693.01 C160.08,682.15 251.57,657.66 309.42,642.17 " fill="none" id="owner-&gt;mngo" style="stroke: #A80036; stroke-width: 1.0;"/><polygon fill="#A80036" points="314.57,640.8,304.8396,639.2773,309.7419,642.0999,306.9194,647.0022,314.57,640.8" style="stroke: #A80036; stroke-width: 1.0;"/><!--MD5=[3942124d668f3590fa7a92c17aa07483]
link owner to mngs--><path d="M119.52,698.5 C153.59,698.5 223.6,698.5 279.43,698.5 " fill="none" id="owner-&gt;mngs" style="stroke: #A80036; stroke-width: 1.0;"/><polygon fill="#A80036" points="284.44,698.5,275.44,694.5,279.44,698.5,275.44,702.5,284.44,698.5" style="stroke: #A80036; stroke-width: 1.0;"/><!--MD5=[7258924fad32647a6d4b9098c05762b4]
link owner to mngcs--><path d="M106.88,657.88 C122.36,588.79 163.16,448.16 251,368.5 C262.12,358.42 276.05,350.99 290.21,345.52 " fill="none" id="owner-&gt;mngcs" style="stroke: #A80036; stroke-width: 1.0;"/><polygon fill="#A80036" points="295.02,343.74,285.1901,343.1285,290.3337,345.4831,287.9791,350.6266,295.02,343.74" style="stroke: #A80036; stroke-width: 1.0;"/><!--MD5=[ce76f01f6443e9777c21c0ce9c50234f]
link owner to mngiv--><path d="M119.83,716.42 C147.97,739.87 200.43,780.96 251,806.5 C267.74,814.95 286.89,822.04 304.45,827.63 " fill="none" id="owner-&gt;mngiv" style="stroke: #A80036; stroke-width: 1.0;"/><polygon fill="#A80036" points="309.35,829.17,301.9639,822.655,304.5801,827.6705,299.5647,830.2868,309.35,829.17" style="stroke: #A80036; stroke-width: 1.0;"/><!--MD5=[a029d056ac1441573606a0542ed42700]
link owner to mngio--><path d="M119.54,733.15 C145.31,773.71 193.21,840.2 251,878.5 C265.44,888.07 282.71,895.06 299.22,900.12 " fill="none" id="owner-&gt;mngio" style="stroke: #A80036; stroke-width: 1.0;"/><polygon fill="#A80036" points="304.31,901.63,296.8249,895.2289,299.5177,900.2037,294.5429,902.8965,304.31,901.63" style="stroke: #A80036; stroke-width: 1.0;"/><!--MD5=[17fbf98b018942627e4918dda06dc408]
link owner to mngsc--><path d="M114,739.07 C136.09,793.61 182.31,890.29 251,947.5 C261.31,956.09 273.57,963.04 286.09,968.62 " fill="none" id="owner-&gt;mngsc" style="stroke: #A80036; stroke-width: 1.0;"/><polygon fill="#A80036" points="290.71,970.62,284.0405,963.3731,286.1217,968.6332,280.8616,970.7143,290.71,970.62" style="stroke: #A80036; stroke-width: 1.0;"/><!--MD5=[391ccd1b57e51d438d97f8b95f42664f]
link owner to password--><path d="M106.51,739.08 C121.52,808.82 161.74,951.6 251,1031.5 C263.16,1042.39 278.69,1049.99 294.2,1055.3 " fill="none" id="owner-&gt;password" style="stroke: #A80036; stroke-width: 1.0;"/><polygon fill="#A80036" points="299.01,1056.87,291.7009,1050.2687,294.2581,1055.3146,289.2122,1057.8718,299.01,1056.87" style="stroke: #A80036; stroke-width: 1.0;"/><!--MD5=[63bbf4533a2b5c82c10e1c5c6fcc155e]
link owner to import--><path d="M102.46,739.25 C111.57,820.57 143.51,1003.76 251,1103.5 C265.07,1116.55 284.17,1124.31 302.48,1128.91 " fill="none" id="owner-&gt;import" style="stroke: #A80036; stroke-width: 1.0;"/><polygon fill="#A80036" points="307.62,1130.12,299.7715,1124.1701,302.7522,1128.978,297.9443,1131.9586,307.62,1130.12" style="stroke: #A80036; stroke-width: 1.0;"/><!--MD5=[3ca8e7f27a5ab55cb9ec684dfe926a22]
link owner to export--><path d="M109.31,657.94 C133.46,565.88 195.82,345.14 251,293.5 C265.18,280.23 284.51,272.28 302.98,267.53 " fill="none" id="owner-&gt;export" style="stroke: #A80036; stroke-width: 1.0;"/><polygon fill="#A80036" points="308.16,266.27,298.4681,264.5185,303.3026,267.4558,300.3654,272.2903,308.16,266.27" style="stroke: #A80036; stroke-width: 1.0;"/><!--MD5=[d23c417f482649109584a89bf4b89922]
reverse link owner to notification--><path d="M124.5,705.52 C167.2,717.28 253.92,741.15 309.51,756.46 " fill="none" id="owner&lt;-notification" style="stroke: #A80036; stroke-width: 1.0;"/><polygon fill="#A80036" points="119.52,704.15,127.1488,710.379,124.3435,705.4668,129.2557,702.6614,119.52,704.15" style="stroke: #A80036; stroke-width: 1.0;"/><!--MD5=[d1d47c286211bc8169b3985d97c50d12]
reverse link owner to retrieve--><path d="M114.2,652.96 C135.74,595.21 180.55,496.34 251,439.5 C265.64,427.69 284.29,419.7 302.04,414.31 " fill="none" id="owner&lt;-retrieve" style="stroke: #A80036; stroke-width: 1.0;"/><polygon fill="#A80036" points="112.44,657.73,119.3007,650.6639,114.1659,653.0373,111.7924,647.9025,112.44,657.73" style="stroke: #A80036; stroke-width: 1.0;"/><!--MD5=[6c55d16c2b02c1b380c123ca896c9ae1]
link mnga to auth--><path d="M415.96,489.88 C434.24,495.75 454.49,503.34 472,512.5 C552.4,554.57 625.33,636.34 657.75,675.94 " fill="none" id="mnga-&gt;auth" style="stroke: #A80036; stroke-width: 1.0;"/><polygon fill="#A80036" points="661.14,680.09,658.5691,670.5826,657.987,676.2094,652.3602,675.6273,661.14,680.09" style="stroke: #A80036; stroke-width: 1.0;"/><text fill="#000000" font-family="sans-serif" font-size="13" lengthAdjust="spacingAndGlyphs" textLength="61" x="503" y="527.5669">«include»</text><!--MD5=[5c7d3745c0f0759ae0af699ffeee9282]
link mngc to auth--><path d="M417.6,573.43 C435.08,579.94 454.42,587.34 472,594.5 C513.84,611.54 524.66,615.18 565,635.5 C591.51,648.86 620.65,665.56 642.35,678.41 " fill="none" id="mngc-&gt;auth" style="stroke: #A80036; stroke-width: 1.0;"/><polygon fill="#A80036" points="646.86,681.09,641.169,673.0518,642.5625,678.5343,637.08,679.9278,646.86,681.09" style="stroke: #A80036; stroke-width: 1.0;"/><text fill="#000000" font-family="sans-serif" font-size="13" lengthAdjust="spacingAndGlyphs" textLength="61" x="503" y="602.5669">«include»</text><!--MD5=[7f8299efe0c556fe71177e3986fda04b]
link mngo to auth--><path d="M412.79,639.75 C467.25,651.93 554.2,671.37 613.01,684.52 " fill="none" id="mngo-&gt;auth" style="stroke: #A80036; stroke-width: 1.0;"/><polygon fill="#A80036" points="617.9,685.62,609.9857,679.758,613.0197,684.5323,608.2454,687.5664,617.9,685.62" style="stroke: #A80036; stroke-width: 1.0;"/><text fill="#000000" font-family="sans-serif" font-size="13" lengthAdjust="spacingAndGlyphs" textLength="61" x="503" y="656.5669">«include»</text><!--MD5=[ad876e1e38715ed8ef1e1c7bb1afeac2]
link mngs to auth--><path d="M438.67,698.5 C484.32,698.5 542.49,698.5 589.76,698.5 " fill="none" id="mngs-&gt;auth" style="stroke: #A80036; stroke-width: 1.0;"/><polygon fill="#A80036" points="594.88,698.5,585.88,694.5,589.88,698.5,585.88,702.5,594.88,698.5" style="stroke: #A80036; stroke-width: 1.0;"/><text fill="#000000" font-family="sans-serif" font-size="13" lengthAdjust="spacingAndGlyphs" textLength="61" x="503" y="694.5669">«include»</text><!--MD5=[4a0d3d3580b5c897c06c09965be75fa3]
link mngcs to auth--><path d="M421.49,345.21 C467.1,359.58 528.45,385.93 565,430.5 C627.97,507.28 659.52,624.91 670.67,674.81 " fill="none" id="mngcs-&gt;auth" style="stroke: #A80036; stroke-width: 1.0;"/><polygon fill="#A80036" points="671.81,679.99,673.7834,670.3409,670.736,675.1067,665.9701,672.0593,671.81,679.99" style="stroke: #A80036; stroke-width: 1.0;"/><text fill="#000000" font-family="sans-serif" font-size="13" lengthAdjust="spacingAndGlyphs" textLength="61" x="503" y="376.5669">«include»</text><!--MD5=[e0917f88bb2dfbbe0c18228dc31140e7]
link mngiv to auth--><path d="M409.89,828.44 C429.34,822.27 451.96,814.6 472,806.5 C534.71,781.15 603.38,742.16 642.77,718.61 " fill="none" id="mngiv-&gt;auth" style="stroke: #A80036; stroke-width: 1.0;"/><polygon fill="#A80036" points="647.42,715.82,637.6446,717.0205,643.1325,718.3925,641.7605,723.8804,647.42,715.82" style="stroke: #A80036; stroke-width: 1.0;"/><text fill="#000000" font-family="sans-serif" font-size="13" lengthAdjust="spacingAndGlyphs" textLength="61" x="503" y="758.5669">«include»</text><!--MD5=[a2f0cd541b904585e5836b937b716310]
link mngio to auth--><path d="M412.7,900.19 C431.73,894.68 453.31,887.4 472,878.5 C516.85,857.14 527.1,848.62 565,816.5 C600.56,786.35 636.5,745.65 657.35,720.78 " fill="none" id="mngio-&gt;auth" style="stroke: #A80036; stroke-width: 1.0;"/><polygon fill="#A80036" points="660.57,716.93,651.7275,721.2671,657.3621,720.7653,657.8639,726.3998,660.57,716.93" style="stroke: #A80036; stroke-width: 1.0;"/><text fill="#000000" font-family="sans-serif" font-size="13" lengthAdjust="spacingAndGlyphs" textLength="61" x="503" y="812.5669">«include»</text><!--MD5=[e6b1d2f4387b436f0a51a93365ff5007]
link mngsc to auth--><path d="M427.5,969.65 C471.13,953.51 527.3,926.89 565,887.5 C613.79,836.52 649.93,760.07 666.11,721.92 " fill="none" id="mngsc-&gt;auth" style="stroke: #A80036; stroke-width: 1.0;"/><polygon fill="#A80036" points="668.17,717.01,661.0087,723.7714,666.2419,721.6233,668.39,726.8564,668.17,717.01" style="stroke: #A80036; stroke-width: 1.0;"/><text fill="#000000" font-family="sans-serif" font-size="13" lengthAdjust="spacingAndGlyphs" textLength="61" x="503" y="883.5669">«include»</text><!--MD5=[e2446e35fe6b8ac1dd654175af6b3c5d]
link export to auth--><path d="M408.58,269.11 C455.61,280.45 526.95,305.16 565,355.5 C642.08,457.48 666.51,615.18 673.23,674.69 " fill="none" id="export-&gt;auth" style="stroke: #A80036; stroke-width: 1.0;"/><polygon fill="#A80036" points="673.79,679.8,676.7894,670.419,673.2472,674.8295,668.8367,671.2874,673.79,679.8" style="stroke: #A80036; stroke-width: 1.0;"/><text fill="#000000" font-family="sans-serif" font-size="13" lengthAdjust="spacingAndGlyphs" textLength="61" x="503" y="301.5669">«include»</text><!--MD5=[6fddc62cc25807cd6a33c16785294d12]
link import to auth--><path d="M408.25,1126.83 C455.36,1115.36 527.09,1090.34 565,1039.5 C641.01,937.56 666.08,781.11 673.1,722.11 " fill="none" id="import-&gt;auth" style="stroke: #A80036; stroke-width: 1.0;"/><polygon fill="#A80036" points="673.69,717.03,668.6857,725.5127,673.1174,721.9971,676.633,726.4289,673.69,717.03" style="stroke: #A80036; stroke-width: 1.0;"/><text fill="#000000" font-family="sans-serif" font-size="13" lengthAdjust="spacingAndGlyphs" textLength="61" x="503" y="1035.5669">«include»</text><!--MD5=[32974577d1e23ec02ee62f1533e6ecc5]
link password to auth--><path d="M414.75,1054.45 C433.42,1048.73 454.21,1041.1 472,1031.5 C518.48,1006.41 532.99,999.52 565,957.5 C623.02,881.33 656.94,770.1 669.68,722.05 " fill="none" id="password-&gt;auth" style="stroke: #A80036; stroke-width: 1.0;"/><polygon fill="#A80036" points="670.98,717.06,664.8201,724.7448,669.7068,721.8952,672.5564,726.7819,670.98,717.06" style="stroke: #A80036; stroke-width: 1.0;"/><text fill="#000000" font-family="sans-serif" font-size="13" lengthAdjust="spacingAndGlyphs" textLength="61" x="503" y="953.5669">«include»</text><!--MD5=[dfe2615e171897beb5e63d4b8007dcd6]
link notification to auth--><path d="M418.82,757.54 C473.66,744.93 556.82,725.8 613.52,712.76 " fill="none" id="notification-&gt;auth" style="stroke: #A80036; stroke-width: 1.0;"/><polygon fill="#A80036" points="618.58,711.59,608.9094,709.7245,613.709,712.7185,610.715,717.518,618.58,711.59" style="stroke: #A80036; stroke-width: 1.0;"/><text fill="#000000" font-family="sans-serif" font-size="13" lengthAdjust="spacingAndGlyphs" textLength="61" x="503" y="721.5669">«include»</text><!--MD5=[204c51859c0827d190e336591d7fc2c0]
link retrieve to auth--><path d="M412.58,416.43 C431.7,422.27 453.36,430.01 472,439.5 C517.4,462.62 530.86,468.69 565,506.5 C612.85,559.5 649.42,636.61 665.9,674.99 " fill="none" id="retrieve-&gt;auth" style="stroke: #A80036; stroke-width: 1.0;"/><polygon fill="#A80036" points="667.99,679.91,668.1582,670.0626,666.0376,675.3069,660.7933,673.1864,667.99,679.91" style="stroke: #A80036; stroke-width: 1.0;"/><text fill="#000000" font-family="sans-serif" font-size="13" lengthAdjust="spacingAndGlyphs" textLength="61" x="503" y="451.5669">«include»</text><!--MD5=[95070763e8c2d792e0330b165c798354]
link cs to mngsr--><path d="M143.06,170.56 C181.33,161.92 237.64,149.22 283.36,138.9 " fill="none" id="cs-&gt;mngsr" style="stroke: #A80036; stroke-width: 1.0;"/><polygon fill="#A80036" points="288.32,137.79,278.66,135.8706,283.4428,138.8913,280.4221,143.6741,288.32,137.79" style="stroke: #A80036; stroke-width: 1.0;"/><!--MD5=[34131e0a5932159f9083e12ccbcae9c8]
reverse link cs to getc--><path d="M148.13,183.32 C190.43,185.74 251.73,189.26 297.61,191.89 " fill="none" id="cs&lt;-getc" style="stroke: #A80036; stroke-width: 1.0;"/><polygon fill="#A80036" points="143.06,183.03,151.8164,187.5384,148.0518,183.3161,152.2741,179.5515,143.06,183.03" style="stroke: #A80036; stroke-width: 1.0;"/><!--MD5=[c86ba5ba8ff5c023cb9984a8fe35529a]
reverse link stp to tracko--><path d="M195.26,48.5 C230.48,48.5 269.3,48.5 300.46,48.5 " fill="none" id="stp&lt;-tracko" style="stroke: #A80036; stroke-width: 1.0;"/><polygon fill="#A80036" points="190.09,48.5,199.09,52.5,195.09,48.5,199.09,44.5,190.09,48.5" style="stroke: #A80036; stroke-width: 1.0;"/><!--MD5=[d7b17a5599d3ae2d30031b456abb873e]
reverse link pos to mngcs--><path d="M147.85,330.5 C182.94,330.5 231.2,330.5 272.88,330.5 " fill="none" id="pos&lt;-mngcs" style="stroke: #A80036; stroke-width: 1.0;"/><polygon fill="#A80036" points="142.77,330.5,151.77,334.5,147.77,330.5,151.77,326.5,142.77,330.5" style="stroke: #A80036; stroke-width: 1.0;"/><!--MD5=[70bb20e0e684ae2de86e86a90761467a]
@startuml usecaseDiagram
left to right direction 
!pragma layout smetana
skinparam backgroundColor #fcf7f2

usecase "manage accounting" as mnga
usecase "manage product catalogue" as mngc
usecase "manage orders" as mngo
usecase "manage suppliers" as mngs
usecase "manage cash register" as mngcs
usecase "manage inventory" as mngiv
usecase "manage invoices" as mngio
usecase "manage shipping companies" as mngsc
usecase "manage sales and refunds" as mngsr

usecase "get catalogue" as getc
usecase "track orders" as tracko

usecase "authenticate owner" as auth
usecase "change password" as password

usecase "import data" as import
usecase "export data" as export
usecase "retrieve data data" as retrieve

usecase "receive notification" as notification


actor owner
actor "POS provider" as pos
actor "cash register" as cs
actor "shipment tracking provider" as stp


owner - -> mnga
owner - -> mngc
owner - -> mngo
owner - -> mngs
owner - -> mngcs
owner - -> mngiv
owner - -> mngio
owner - -> mngsc

owner - -> password
owner - -> import
owner - -> export
owner <- - notification
owner <- - retrieve

mnga - -> auth : <<include>>
mngc - -> auth : <<include>>
mngo - -> auth : <<include>>
mngs - -> auth : <<include>>
mngcs - -> auth : <<include>>
mngiv - -> auth : <<include>>
mngio - -> auth : <<include>>
mngsc - -> auth : <<include>>
export - -> auth : <<include>>
import - -> auth : <<include>>
password - -> auth : <<include>>
notification - -> auth : <<include>>
retrieve - -> auth : <<include>>


cs - -> mngsr
cs <- - getc

stp <- - tracko

pos <- - mngcs

@enduml

PlantUML version 1.2020.02(Sun Mar 01 11:22:07 CET 2020)
(GPL source distribution)
Java Runtime: OpenJDK Runtime Environment
JVM: OpenJDK 64-Bit Server VM
Java Version: 21.0.8+9-Ubuntu-0ubuntu122.04.1
Operating System: Linux
Default Encoding: UTF-8
Language: en
Country: GB
--></g></svg>