<?xml version="1.0" encoding="UTF-8" standalone="no"?><svg xmlns="http://www.w3.org/2000/svg" xmlns:xlink="http://www.w3.org/1999/xlink" contentScriptType="application/ecmascript" contentStyleType="text/css" height="1225px" preserveAspectRatio="none" style="width:768px;height:1225px;background:#FCF7F2;" version="1.1" viewBox="0 0 768 1225" width="768px" zoomAndPan="magnify"><defs><filter height="300%" id="f12fxto0lgqmcz" width="300%" x="-1" y="-1"><feGaussianBlur result="blurOut" stdDeviation="2.0"/><feColorMatrix in="blurOut" result="blurOut2" type="matrix" values="0 0 0 0 0 0 0 0 0 0 0 0 0 0 0 0 0 0 .4 0"/><feOffset dx="4.0" dy="4.0" in="blurOut2" result="blurOut3"/><feBlend in="SourceGraphic" in2="blurOut3" mode="normal"/></filter></defs><g><ellipse cx="361.7005" cy="693.9401" fill="#FEFECE" filter="url(#f12fxto0lgqmcz)" rx="82.7005" ry="18.9401" style="stroke: #A80036; stroke-width: 1.5;"/><text fill="#000000" font-family="sans-serif" font-size="14" lengthAdjust="spacingAndGlyphs" textLength="137" x="293.2005" y="698.5885">manage accounting</text><ellipse cx="361.5329" cy="843.8066" fill="#FEFECE" filter="url(#f12fxto0lgqmcz)" rx="104.5329" ry="23.3066" style="stroke: #A80036; stroke-width: 1.5;"/><text fill="#000000" font-family="sans-serif" font-size="14" lengthAdjust="spacingAndGlyphs" textLength="186" x="268.5329" y="848.455">manage product catalogue</text><ellipse cx="361.4543" cy="918.7909" fill="#FEFECE" filter="url(#f12fxto0lgqmcz)" rx="69.4543" ry="16.2909" style="stroke: #A80036; stroke-width: 1.5;"/><text fill="#000000" font-family="sans-serif" font-size="14" lengthAdjust="spacingAndGlyphs" textLength="105" x="308.9543" y="923.4393">manage orders</text><ellipse cx="361.2711" cy="988.7542" fill="#FEFECE" filter="url(#f12fxto0lgqmcz)" rx="76.7711" ry="17.7542" style="stroke: #A80036; stroke-width: 1.5;"/><text fill="#000000" font-family="sans-serif" font-size="14" lengthAdjust="spacingAndGlyphs" textLength="123" x="299.7711" y="993.4027">manage suppliers</text><ellipse cx="361.3518" cy="184.0704" fill="#FEFECE" filter="url(#f12fxto0lgqmcz)" rx="88.3518" ry="20.0704" style="stroke: #A80036; stroke-width: 1.5;"/><text fill="#000000" font-family="sans-serif" font-size="14" lengthAdjust="spacingAndGlyphs" textLength="150" x="286.3518" y="188.7188">manage cash register</text><ellipse cx="361.2711" cy="1126.7542" fill="#FEFECE" filter="url(#f12fxto0lgqmcz)" rx="76.7711" ry="17.7542" style="stroke: #A80036; stroke-width: 1.5;"/><text fill="#000000" font-family="sans-serif" font-size="14" lengthAdjust="spacingAndGlyphs" textLength="123" x="299.7711" y="1131.4027">manage inventory</text><ellipse cx="361.3797" cy="1197.1759" fill="#FEFECE" filter="url(#f12fxto0lgqmcz)" rx="73.8797" ry="17.1759" style="stroke: #A80036; stroke-width: 1.5;"/><text fill="#000000" font-family="sans-serif" font-size="14" lengthAdjust="spacingAndGlyphs" textLength="116" x="303.3797" y="1201.8244">manage invoices</text><ellipse cx="361.5183" cy="345.0037" fill="#FEFECE" filter="url(#f12fxto0lgqmcz)" rx="110.5183" ry="24.5037" style="stroke: #A80036; stroke-width: 1.5;"/><text fill="#000000" font-family="sans-serif" font-size="14" lengthAdjust="spacingAndGlyphs" textLength="199" x="262.0183" y="349.6521">manage shipping companies</text><ellipse cx="361.6608" cy="262.0322" fill="#FEFECE" filter="url(#f12fxto0lgqmcz)" rx="103.1608" ry="23.0322" style="stroke: #A80036; stroke-width: 1.5;"/><text fill="#000000" font-family="sans-serif" font-size="14" lengthAdjust="spacingAndGlyphs" textLength="183" x="270.1608" y="266.6806">manage sales and refunds</text><ellipse cx="361.5794" cy="1058.0159" fill="#FEFECE" filter="url(#f12fxto0lgqmcz)" rx="65.5794" ry="15.5159" style="stroke: #A80036; stroke-width: 1.5;"/><text fill="#000000" font-family="sans-serif" font-size="14" lengthAdjust="spacingAndGlyphs" textLength="95" x="314.0794" y="1062.6643">get catalogue</text><ellipse cx="361.6565" cy="49.1313" fill="#FEFECE" filter="url(#f12fxto0lgqmcz)" rx="61.1565" ry="14.6313" style="stroke: #A80036; stroke-width: 1.5;"/><text fill="#000000" font-family="sans-serif" font-size="14" lengthAdjust="spacingAndGlyphs" textLength="83" x="320.1565" y="53.7797">track orders</text><ellipse cx="676.4151" cy="694.183" fill="#FEFECE" filter="url(#f12fxto0lgqmcz)" rx="81.4151" ry="18.683" style="stroke: #A80036; stroke-width: 1.5;"/><text fill="#000000" font-family="sans-serif" font-size="14" lengthAdjust="spacingAndGlyphs" textLength="134" x="609.4151" y="698.8315">authenticate owner</text><ellipse cx="361.2711" cy="422.7542" fill="#FEFECE" filter="url(#f12fxto0lgqmcz)" rx="76.7711" ry="17.7542" style="stroke: #A80036; stroke-width: 1.5;"/><text fill="#000000" font-family="sans-serif" font-size="14" lengthAdjust="spacingAndGlyphs" textLength="123" x="299.7711" y="427.4027">change password</text><ellipse cx="361.6543" cy="491.0236" fill="#FEFECE" filter="url(#f12fxto0lgqmcz)" rx="58.1543" ry="14.5236" style="stroke: #A80036; stroke-width: 1.5;"/><text fill="#000000" font-family="sans-serif" font-size="14" lengthAdjust="spacingAndGlyphs" textLength="78" x="322.6543" y="495.6721">import data</text><ellipse cx="361.6543" cy="555.0236" fill="#FEFECE" filter="url(#f12fxto0lgqmcz)" rx="58.1543" ry="14.5236" style="stroke: #A80036; stroke-width: 1.5;"/><text fill="#000000" font-family="sans-serif" font-size="14" lengthAdjust="spacingAndGlyphs" textLength="78" x="322.6543" y="559.6721">export data</text><ellipse cx="361.5253" cy="622.0051" fill="#FEFECE" filter="url(#f12fxto0lgqmcz)" rx="75.5253" ry="17.5051" style="stroke: #A80036; stroke-width: 1.5;"/><text fill="#000000" font-family="sans-serif" font-size="14" lengthAdjust="spacingAndGlyphs" textLength="120" x="301.5253" y="626.6535">retrieve data data</text><ellipse cx="361.2901" cy="766.758" fill="#FEFECE" filter="url(#f12fxto0lgqmcz)" rx="79.2901" ry="18.258" style="stroke: #A80036; stroke-width: 1.5;"/><text fill="#000000" font-family="sans-serif" font-size="14" lengthAdjust="spacingAndGlyphs" textLength="129" x="296.7901" y="771.4065">receive notification</text><!--MD5=[55f2968de154b8cc740615bf6e5af92f]
entity owner--><ellipse cx="98" cy="663" fill="#FEFECE" filter="url(#f12fxto0lgqmcz)" rx="8" ry="8" style="stroke: #A80036; stroke-width: 1.5;"/><path d="M98,671 L98,698 M85,679 L111,679 M98,698 L85,713 M98,698 L111,713 " fill="none" filter="url(#f12fxto0lgqmcz)" style="stroke: #A80036; stroke-width: 1.5;"/><text fill="#000000" font-family="sans-serif" font-size="14" lengthAdjust="spacingAndGlyphs" textLength="43" x="76.5" y="731.4951">owner</text><!--MD5=[e0ce3f04a84c4e9839cbbe02ae2dfcd5]
entity pos--><ellipse cx="98" cy="134" fill="#FEFECE" filter="url(#f12fxto0lgqmcz)" rx="8" ry="8" style="stroke: #A80036; stroke-width: 1.5;"/><path d="M98,142 L98,169 M85,150 L111,150 M98,169 L85,184 M98,169 L111,184 " fill="none" filter="url(#f12fxto0lgqmcz)" style="stroke: #A80036; stroke-width: 1.5;"/><text fill="#000000" font-family="sans-serif" font-size="14" lengthAdjust="spacingAndGlyphs" textLength="89" x="53.5" y="202.4951">POS provider</text><!--MD5=[d5096230de5c7e9b5a3d1997ba7f37f3]
entity cs--><ellipse cx="98" cy="250" fill="#FEFECE" filter="url(#f12fxto0lgqmcz)" rx="8" ry="8" style="stroke: #A80036; stroke-width: 1.5;"/><path d="M98,258 L98,285 M85,266 L111,266 M98,285 L85,300 M98,285 L111,300 " fill="none" filter="url(#f12fxto0lgqmcz)" style="stroke: #A80036; stroke-width: 1.5;"/><text fill="#000000" font-family="sans-serif" font-size="14" lengthAdjust="spacingAndGlyphs" textLength="90" x="53" y="318.4951">cash register</text><!--MD5=[bcb06b6d3c69a8cc25a1eea99eeb0433]
entity stp--><ellipse cx="98" cy="18" fill="#FEFECE" filter="url(#f12fxto0lgqmcz)" rx="8" ry="8" style="stroke: #A80036; stroke-width: 1.5;"/><path d="M98,26 L98,53 M85,34 L111,34 M98,53 L85,68 M98,53 L111,68 " fill="none" filter="url(#f12fxto0lgqmcz)" style="stroke: #A80036; stroke-width: 1.5;"/><text fill="#000000" font-family="sans-serif" font-size="14" lengthAdjust="spacingAndGlyphs" textLength="184" x="6" y="86.4951">shipment tracking provider</text><!--MD5=[3423871069a8e5f5f24bc0548f0f110c]
link owner to mnga--><path d="M119.52,694 C152.41,694 218.81,694 273.59,694 " fill="none" id="owner-&gt;mnga" style="stroke: #A80036; stroke-width: 1.0;"/><polygon fill="#A80036" points="278.86,694,269.86,690,273.86,694,269.86,698,278.86,694" style="stroke: #A80036; stroke-width: 1.0;"/><!--MD5=[8f6c924f99e5122d3794e0d13c91dad7]
link owner to mngc--><path d="M119.96,711.8 C148.24,735.13 200.86,776.25 251,803 C265,810.47 280.66,817.2 295.66,822.95 " fill="none" id="owner-&gt;mngc" style="stroke: #A80036; stroke-width: 1.0;"/><polygon fill="#A80036" points="300.71,824.86,293.706,817.9358,296.0331,823.0919,290.877,825.419,300.71,824.86" style="stroke: #A80036; stroke-width: 1.0;"/><!--MD5=[a435f4b43c5b275008831119dfcc4050]
link owner to mngo--><path d="M119.7,731.94 C145.14,775.11 192.23,844.81 251,885 C265.94,895.22 284.09,902.47 301.28,907.57 " fill="none" id="owner-&gt;mngo" style="stroke: #A80036; stroke-width: 1.0;"/><polygon fill="#A80036" points="306.1,908.95,298.5402,902.6373,301.2913,907.5802,296.3485,910.3313,306.1,908.95" style="stroke: #A80036; stroke-width: 1.0;"/><!--MD5=[3942124d668f3590fa7a92c17aa07483]
link owner to mngs--><path d="M112.44,734.77 C133.25,791.7 178.57,894.56 251,953 C263.99,963.48 280.13,970.95 295.99,976.26 " fill="none" id="owner-&gt;mngs" style="stroke: #A80036; stroke-width: 1.0;"/><polygon fill="#A80036" points="300.9,977.84,293.5551,971.2785,296.1397,976.3104,291.1078,978.895,300.9,977.84" style="stroke: #A80036; stroke-width: 1.0;"/><!--MD5=[7258924fad32647a6d4b9098c05762b4]
link owner to mngcs--><path d="M107.1,653.44 C128.36,550.81 188.42,284.51 251,222 C261.36,211.65 274.68,204.12 288.44,198.63 " fill="none" id="owner-&gt;mngcs" style="stroke: #A80036; stroke-width: 1.0;"/><polygon fill="#A80036" points="293.12,196.85,283.285,196.3273,288.4496,198.6353,286.1415,203.7999,293.12,196.85" style="stroke: #A80036; stroke-width: 1.0;"/><!--MD5=[ce76f01f6443e9777c21c0ce9c50234f]
link owner to mngiv--><path d="M103.11,734.58 C113.33,814.25 147.09,991.96 251,1091 C262.68,1102.14 277.87,1109.83 293.2,1115.14 " fill="none" id="owner-&gt;mngiv" style="stroke: #A80036; stroke-width: 1.0;"/><polygon fill="#A80036" points="297.96,1116.72,290.6688,1110.0989,293.2123,1115.1517,288.1595,1117.6952,297.96,1116.72" style="stroke: #A80036; stroke-width: 1.0;"/><!--MD5=[a029d056ac1441573606a0542ed42700]
link owner to mngio--><path d="M100.17,734.58 C105,824.66 129.36,1042.85 251,1163 C262.32,1174.19 277.26,1181.7 292.44,1186.75 " fill="none" id="owner-&gt;mngio" style="stroke: #A80036; stroke-width: 1.0;"/><polygon fill="#A80036" points="297.59,1188.36,290.2039,1181.845,292.8201,1186.8605,287.8047,1189.4768,297.59,1188.36" style="stroke: #A80036; stroke-width: 1.0;"/><!--MD5=[17fbf98b018942627e4918dda06dc408]
link owner to mngsc--><path d="M109,653.29 C126.87,588.59 170.22,462.06 251,388 C260.92,378.9 272.99,371.64 285.45,365.87 " fill="none" id="owner-&gt;mngsc" style="stroke: #A80036; stroke-width: 1.0;"/><polygon fill="#A80036" points="290.05,363.81,280.2012,363.8415,285.4875,365.8553,283.4736,371.1415,290.05,363.81" style="stroke: #A80036; stroke-width: 1.0;"/><!--MD5=[164c69a7396055fc440bb6c31b399983]
link owner to mngsr--><path d="M103.78,653.47 C115.11,575.19 150.6,402.15 251,303 C260.58,293.54 272.55,286.22 285.03,280.58 " fill="none" id="owner-&gt;mngsr" style="stroke: #A80036; stroke-width: 1.0;"/><polygon fill="#A80036" points="289.65,278.58,279.8017,278.4745,285.0595,280.5616,282.9723,285.8194,289.65,278.58" style="stroke: #A80036; stroke-width: 1.0;"/><!--MD5=[391ccd1b57e51d438d97f8b95f42664f]
link owner to password--><path d="M115,653.46 C137.63,601.17 183.87,510.79 251,459 C264.35,448.7 280.78,441.28 296.82,435.96 " fill="none" id="owner-&gt;password" style="stroke: #A80036; stroke-width: 1.0;"/><polygon fill="#A80036" points="301.77,434.37,291.9807,433.2883,297.0056,435.8866,294.4073,440.9114,301.77,434.37" style="stroke: #A80036; stroke-width: 1.0;"/><!--MD5=[63bbf4533a2b5c82c10e1c5c6fcc155e]
link owner to import--><path d="M119.62,661.3 C145.64,622.67 193.94,559.11 251,523 C267.9,512.3 288.51,505.06 307.28,500.22 " fill="none" id="owner-&gt;import" style="stroke: #A80036; stroke-width: 1.0;"/><polygon fill="#A80036" points="312.51,498.92,302.8121,497.202,307.6568,500.1226,304.7362,504.9672,312.51,498.92" style="stroke: #A80036; stroke-width: 1.0;"/><!--MD5=[3ca8e7f27a5ab55cb9ec684dfe926a22]
link owner to export--><path d="M119.74,676 C147.77,652.51 200.12,611.51 251,587 C270.08,577.81 292.33,570.71 311.77,565.57 " fill="none" id="owner-&gt;export" style="stroke: #A80036; stroke-width: 1.0;"/><polygon fill="#A80036" points="316.64,564.3,306.9237,562.6897,311.8004,565.5563,308.9338,570.433,316.64,564.3" style="stroke: #A80036; stroke-width: 1.0;"/><!--MD5=[eb8b8f746cee78f9a5c0f385d33443d2]
link owner to getc--><path d="M106.38,734.57 C121.19,804.26 161.11,946.72 251,1025 C264.37,1036.64 281.72,1044.17 298.67,1049.05 " fill="none" id="owner-&gt;getc" style="stroke: #A80036; stroke-width: 1.0;"/><polygon fill="#A80036" points="303.9,1050.48,296.2712,1044.251,299.0765,1049.1632,294.1643,1051.9686,303.9,1050.48" style="stroke: #A80036; stroke-width: 1.0;"/><!--MD5=[d23c417f482649109584a89bf4b89922]
reverse link owner to notification--><path d="M124.51,701.12 C167.27,713.06 254.19,737.32 309.77,752.84 " fill="none" id="owner&lt;-notification" style="stroke: #A80036; stroke-width: 1.0;"/><polygon fill="#A80036" points="119.52,699.73,127.0971,706.0219,124.3324,701.0866,129.2677,698.322,119.52,699.73" style="stroke: #A80036; stroke-width: 1.0;"/><!--MD5=[d1d47c286211bc8169b3985d97c50d12]
reverse link owner to retrieve--><path d="M124.58,686.96 C167.96,675.01 256.64,650.6 312.06,635.34 " fill="none" id="owner&lt;-retrieve" style="stroke: #A80036; stroke-width: 1.0;"/><polygon fill="#A80036" points="119.52,688.35,129.2557,689.8386,124.3435,687.0332,127.1488,682.121,119.52,688.35" style="stroke: #A80036; stroke-width: 1.0;"/><!--MD5=[6c55d16c2b02c1b380c123ca896c9ae1]
link mnga to auth--><path d="M444.33,694 C489.06,694 544.43,694 589.77,694 " fill="none" id="mnga-&gt;auth" style="stroke: #A80036; stroke-width: 1.0;"/><polygon fill="#A80036" points="594.96,694,585.96,690,589.96,694,585.96,698,594.96,694" style="stroke: #A80036; stroke-width: 1.0;"/><text fill="#000000" font-family="sans-serif" font-size="13" lengthAdjust="spacingAndGlyphs" textLength="61" x="503" y="690.0669">«include»</text><!--MD5=[5c7d3745c0f0759ae0af699ffeee9282]
link mngc to auth--><path d="M418.64,824.22 C435.9,817.81 454.86,810.42 472,803 C534.02,776.13 602.64,737.36 642.25,714.03 " fill="none" id="mngc-&gt;auth" style="stroke: #A80036; stroke-width: 1.0;"/><polygon fill="#A80036" points="646.93,711.26,637.1471,712.3981,642.6262,713.8051,641.2193,719.2842,646.93,711.26" style="stroke: #A80036; stroke-width: 1.0;"/><text fill="#000000" font-family="sans-serif" font-size="13" lengthAdjust="spacingAndGlyphs" textLength="61" x="503" y="754.0669">«include»</text><!--MD5=[7f8299efe0c556fe71177e3986fda04b]
link mngo to auth--><path d="M412.26,907.68 C431.54,902.25 453.4,894.76 472,885 C553.76,842.09 626.55,757.24 658.43,716.65 " fill="none" id="mngo-&gt;auth" style="stroke: #A80036; stroke-width: 1.0;"/><polygon fill="#A80036" points="661.75,712.4,653.0532,717.0223,658.6685,716.3375,659.3532,721.9528,661.75,712.4" style="stroke: #A80036; stroke-width: 1.0;"/><text fill="#000000" font-family="sans-serif" font-size="13" lengthAdjust="spacingAndGlyphs" textLength="61" x="503" y="814.0669">«include»</text><!--MD5=[ad876e1e38715ed8ef1e1c7bb1afeac2]
link mngs to auth--><path d="M413.44,975.62 C458.76,961.32 524.04,934.47 565,890 C614.39,836.38 650.49,756.78 666.43,717.57 " fill="none" id="mngs-&gt;auth" style="stroke: #A80036; stroke-width: 1.0;"/><polygon fill="#A80036" points="668.46,712.54,661.3854,719.392,666.5908,717.1774,668.8053,722.3828,668.46,712.54" style="stroke: #A80036; stroke-width: 1.0;"/><text fill="#000000" font-family="sans-serif" font-size="13" lengthAdjust="spacingAndGlyphs" textLength="61" x="503" y="886.0669">«include»</text><!--MD5=[4a0d3d3580b5c897c06c09965be75fa3]
link mngcs to auth--><path d="M425.6,197.86 C441.85,203.5 458.53,211.29 472,222 C621.71,341.07 663.38,591.66 672.98,670.05 " fill="none" id="mngcs-&gt;auth" style="stroke: #A80036; stroke-width: 1.0;"/><polygon fill="#A80036" points="673.62,675.39,676.5096,665.9746,673.0192,670.4262,668.5675,666.9359,673.62,675.39" style="stroke: #A80036; stroke-width: 1.0;"/><text fill="#000000" font-family="sans-serif" font-size="13" lengthAdjust="spacingAndGlyphs" textLength="61" x="503" y="245.0669">«include»</text><!--MD5=[e0917f88bb2dfbbe0c18228dc31140e7]
link mngiv to auth--><path d="M420.29,1115.31 C438,1109.88 456.8,1102.08 472,1091 C603.74,994.94 656.42,788.4 670.99,718.05 " fill="none" id="mngiv-&gt;auth" style="stroke: #A80036; stroke-width: 1.0;"/><polygon fill="#A80036" points="672.05,712.83,666.3311,720.8484,671.0502,717.729,674.1696,722.4481,672.05,712.83" style="stroke: #A80036; stroke-width: 1.0;"/><text fill="#000000" font-family="sans-serif" font-size="13" lengthAdjust="spacingAndGlyphs" textLength="61" x="503" y="990.0669">«include»</text><!--MD5=[a2f0cd541b904585e5836b937b716310]
link mngio to auth--><path d="M415.18,1185.21 C433.79,1179.88 454.44,1172.58 472,1163 C519.36,1137.16 535.7,1130.3 565,1085 C644.37,962.29 667.65,782.11 673.64,717.85 " fill="none" id="mngio-&gt;auth" style="stroke: #A80036; stroke-width: 1.0;"/><polygon fill="#A80036" points="674.1,712.71,669.2927,721.3059,673.6422,717.689,677.2591,722.0385,674.1,712.71" style="stroke: #A80036; stroke-width: 1.0;"/><text fill="#000000" font-family="sans-serif" font-size="13" lengthAdjust="spacingAndGlyphs" textLength="61" x="503" y="1081.0669">«include»</text><!--MD5=[e6b1d2f4387b436f0a51a93365ff5007]
link mngsc to auth--><path d="M432.04,363.88 C475.66,379.01 530.07,404.37 565,444 C626.31,513.55 658.4,622.56 670.16,670.28 " fill="none" id="mngsc-&gt;auth" style="stroke: #A80036; stroke-width: 1.0;"/><polygon fill="#A80036" points="671.36,675.25,673.1115,665.5581,670.1742,670.3926,665.3397,667.4554,671.36,675.25" style="stroke: #A80036; stroke-width: 1.0;"/><text fill="#000000" font-family="sans-serif" font-size="13" lengthAdjust="spacingAndGlyphs" textLength="61" x="503" y="391.0669">«include»</text><!--MD5=[e2446e35fe6b8ac1dd654175af6b3c5d]
link export to auth--><path d="M402.76,565.22 C423.66,570.92 449.47,578.55 472,587 C535.39,610.77 604.11,650.01 643.27,673.79 " fill="none" id="export-&gt;auth" style="stroke: #A80036; stroke-width: 1.0;"/><polygon fill="#A80036" points="647.9,676.61,642.292,668.5137,643.629,674.0103,638.1324,675.3473,647.9,676.61" style="stroke: #A80036; stroke-width: 1.0;"/><text fill="#000000" font-family="sans-serif" font-size="13" lengthAdjust="spacingAndGlyphs" textLength="61" x="503" y="597.0669">«include»</text><!--MD5=[6fddc62cc25807cd6a33c16785294d12]
link import to auth--><path d="M404.37,500.78 C425.12,506.24 450.3,513.8 472,523 C515.8,541.58 527.65,546.53 565,576 C601.81,605.05 637.63,646.44 658.08,671.69 " fill="none" id="import-&gt;auth" style="stroke: #A80036; stroke-width: 1.0;"/><polygon fill="#A80036" points="661.23,675.6,658.6973,666.0824,658.0926,671.7068,652.4682,671.1022,661.23,675.6" style="stroke: #A80036; stroke-width: 1.0;"/><text fill="#000000" font-family="sans-serif" font-size="13" lengthAdjust="spacingAndGlyphs" textLength="61" x="503" y="532.0669">«include»</text><!--MD5=[32974577d1e23ec02ee62f1533e6ecc5]
link password to auth--><path d="M417.54,435.46 C462.08,448 523.94,471.29 565,511 C614.4,558.78 650.15,633.19 666.15,670.71 " fill="none" id="password-&gt;auth" style="stroke: #A80036; stroke-width: 1.0;"/><polygon fill="#A80036" points="668.19,675.53,668.384,665.6831,666.2497,670.9218,661.0109,668.7875,668.19,675.53" style="stroke: #A80036; stroke-width: 1.0;"/><text fill="#000000" font-family="sans-serif" font-size="13" lengthAdjust="spacingAndGlyphs" textLength="61" x="503" y="465.0669">«include»</text><!--MD5=[dfe2615e171897beb5e63d4b8007dcd6]
link notification to auth--><path d="M418.46,753.95 C473.42,741.13 557.07,721.62 613.9,708.37 " fill="none" id="notification-&gt;auth" style="stroke: #A80036; stroke-width: 1.0;"/><polygon fill="#A80036" points="618.97,707.18,609.2931,705.3477,614.1029,708.3252,611.1254,713.135,618.97,707.18" style="stroke: #A80036; stroke-width: 1.0;"/><text fill="#000000" font-family="sans-serif" font-size="13" lengthAdjust="spacingAndGlyphs" textLength="61" x="503" y="717.0669">«include»</text><!--MD5=[204c51859c0827d190e336591d7fc2c0]
link retrieve to auth--><path d="M415.6,634.21 C470.37,646.81 555.72,666.45 613.54,679.75 " fill="none" id="retrieve-&gt;auth" style="stroke: #A80036; stroke-width: 1.0;"/><polygon fill="#A80036" points="618.7,680.93,610.835,675.002,613.829,679.8015,609.0294,682.7955,618.7,680.93" style="stroke: #A80036; stroke-width: 1.0;"/><text fill="#000000" font-family="sans-serif" font-size="13" lengthAdjust="spacingAndGlyphs" textLength="61" x="503" y="651.0669">«include»</text><!--MD5=[95070763e8c2d792e0330b165c798354]
link cs to mngsr--><path d="M143.06,277.8 C174.48,275.52 218.04,272.35 257.93,269.45 " fill="none" id="cs-&gt;mngsr" style="stroke: #A80036; stroke-width: 1.0;"/><polygon fill="#A80036" points="263.28,269.06,254.0077,265.7397,258.2938,269.4315,254.602,273.7176,263.28,269.06" style="stroke: #A80036; stroke-width: 1.0;"/><!--MD5=[c86ba5ba8ff5c023cb9984a8fe35529a]
reverse link stp to tracko--><path d="M195.26,49 C230.48,49 269.3,49 300.46,49 " fill="none" id="stp&lt;-tracko" style="stroke: #A80036; stroke-width: 1.0;"/><polygon fill="#A80036" points="190.09,49,199.09,53,195.09,49,199.09,45,190.09,49" style="stroke: #A80036; stroke-width: 1.0;"/><!--MD5=[d7b17a5599d3ae2d30031b456abb873e]
reverse link pos to mngcs--><path d="M148.01,168.56 C184.22,171.19 234.39,174.84 276.9,177.93 " fill="none" id="pos&lt;-mngcs" style="stroke: #A80036; stroke-width: 1.0;"/><polygon fill="#A80036" points="142.77,168.18,151.4612,172.8128,147.7572,168.5373,152.0328,164.8333,142.77,168.18" style="stroke: #A80036; stroke-width: 1.0;"/><!--MD5=[0d66335e3fb98ae7beff91bf8d2aaeda]
@startuml usecaseDiagram
left to right direction 
!pragma layout smetana
skinparam backgroundColor #fcf7f2

usecase "manage accounting" as mnga
usecase "manage product catalogue" as mngc
usecase "manage orders" as mngo
usecase "manage suppliers" as mngs
usecase "manage cash register" as mngcs
usecase "manage inventory" as mngiv
usecase "manage invoices" as mngio
usecase "manage shipping companies" as mngsc
usecase "manage sales and refunds" as mngsr

usecase "get catalogue" as getc
usecase "track orders" as tracko

usecase "authenticate owner" as auth
usecase "change password" as password

usecase "import data" as import
usecase "export data" as export
usecase "retrieve data data" as retrieve

usecase "receive notification" as notification


actor owner
actor "POS provider" as pos
actor "cash register" as cs
actor "shipment tracking provider" as stp


owner - -> mnga
owner - -> mngc
owner - -> mngo
owner - -> mngs
owner - -> mngcs
owner - -> mngiv
owner - -> mngio
owner - -> mngsc
owner - -> mngsr

owner - -> password
owner - -> import
owner - -> export
owner - -> getc
owner <- - notification
owner <- - retrieve

mnga - -> auth : <<include>>
mngc - -> auth : <<include>>
mngo - -> auth : <<include>>
mngs - -> auth : <<include>>
mngcs - -> auth : <<include>>
mngiv - -> auth : <<include>>
mngio - -> auth : <<include>>
mngsc - -> auth : <<include>>
export - -> auth : <<include>>
import - -> auth : <<include>>
password - -> auth : <<include>>
notification - -> auth : <<include>>
retrieve - -> auth : <<include>>


cs - -> mngsr

stp <- - tracko

pos <- - mngcs

@enduml

PlantUML version 1.2020.02(Sun Mar 01 11:22:07 CET 2020)
(GPL source distribution)
Java Runtime: OpenJDK Runtime Environment
JVM: OpenJDK 64-Bit Server VM
Java Version: 21.0.8+9-Ubuntu-0ubuntu122.04.1
Operating System: Linux
Default Encoding: UTF-8
Language: en
Country: GB
--></g></svg>