<?xml version="1.0" encoding="UTF-8" standalone="no"?><svg xmlns="http://www.w3.org/2000/svg" xmlns:xlink="http://www.w3.org/1999/xlink" contentScriptType="application/ecmascript" contentStyleType="text/css" height="1159px" preserveAspectRatio="none" style="width:768px;height:1159px;background:#FCF7F2;" version="1.1" viewBox="0 0 768 1159" width="768px" zoomAndPan="magnify"><defs><filter height="300%" id="f4zyfwk8148zp" width="300%" x="-1" y="-1"><feGaussianBlur result="blurOut" stdDeviation="2.0"/><feColorMatrix in="blurOut" result="blurOut2" type="matrix" values="0 0 0 0 0 0 0 0 0 0 0 0 0 0 0 0 0 0 .4 0"/><feOffset dx="4.0" dy="4.0" in="blurOut2" result="blurOut3"/><feBlend in="SourceGraphic" in2="blurOut3" mode="normal"/></filter></defs><g><ellipse cx="361.7005" cy="898.9401" fill="#FEFECE" filter="url(#f4zyfwk8148zp)" rx="82.7005" ry="18.9401" style="stroke: #A80036; stroke-width: 1.5;"/><text fill="#000000" font-family="sans-serif" font-size="14" lengthAdjust="spacingAndGlyphs" textLength="137" x="293.2005" y="903.5885">manage accounting</text><ellipse cx="361.5329" cy="976.8066" fill="#FEFECE" filter="url(#f4zyfwk8148zp)" rx="104.5329" ry="23.3066" style="stroke: #A80036; stroke-width: 1.5;"/><text fill="#000000" font-family="sans-serif" font-size="14" lengthAdjust="spacingAndGlyphs" textLength="186" x="268.5329" y="981.455">manage product catalogue</text><ellipse cx="361.4543" cy="114.7909" fill="#FEFECE" filter="url(#f4zyfwk8148zp)" rx="69.4543" ry="16.2909" style="stroke: #A80036; stroke-width: 1.5;"/><text fill="#000000" font-family="sans-serif" font-size="14" lengthAdjust="spacingAndGlyphs" textLength="105" x="308.9543" y="119.4393">manage orders</text><ellipse cx="361.2711" cy="259.7542" fill="#FEFECE" filter="url(#f4zyfwk8148zp)" rx="76.7711" ry="17.7542" style="stroke: #A80036; stroke-width: 1.5;"/><text fill="#000000" font-family="sans-serif" font-size="14" lengthAdjust="spacingAndGlyphs" textLength="123" x="299.7711" y="264.4027">manage suppliers</text><ellipse cx="361.3518" cy="187.0704" fill="#FEFECE" filter="url(#f4zyfwk8148zp)" rx="88.3518" ry="20.0704" style="stroke: #A80036; stroke-width: 1.5;"/><text fill="#000000" font-family="sans-serif" font-size="14" lengthAdjust="spacingAndGlyphs" textLength="150" x="286.3518" y="191.7188">manage cash register</text><ellipse cx="361.2711" cy="330.7542" fill="#FEFECE" filter="url(#f4zyfwk8148zp)" rx="76.7711" ry="17.7542" style="stroke: #A80036; stroke-width: 1.5;"/><text fill="#000000" font-family="sans-serif" font-size="14" lengthAdjust="spacingAndGlyphs" textLength="123" x="299.7711" y="335.4027">manage inventory</text><ellipse cx="361.3797" cy="401.1759" fill="#FEFECE" filter="url(#f4zyfwk8148zp)" rx="73.8797" ry="17.1759" style="stroke: #A80036; stroke-width: 1.5;"/><text fill="#000000" font-family="sans-serif" font-size="14" lengthAdjust="spacingAndGlyphs" textLength="116" x="303.3797" y="405.8244">manage invoices</text><ellipse cx="361.5183" cy="478.0037" fill="#FEFECE" filter="url(#f4zyfwk8148zp)" rx="110.5183" ry="24.5037" style="stroke: #A80036; stroke-width: 1.5;"/><text fill="#000000" font-family="sans-serif" font-size="14" lengthAdjust="spacingAndGlyphs" textLength="199" x="262.0183" y="482.6521">manage shipping companies</text><ellipse cx="361.6608" cy="1125.0322" fill="#FEFECE" filter="url(#f4zyfwk8148zp)" rx="103.1608" ry="23.0322" style="stroke: #A80036; stroke-width: 1.5;"/><text fill="#000000" font-family="sans-serif" font-size="14" lengthAdjust="spacingAndGlyphs" textLength="183" x="270.1608" y="1129.6806">manage sales and refunds</text><ellipse cx="361.5794" cy="1051.0159" fill="#FEFECE" filter="url(#f4zyfwk8148zp)" rx="65.5794" ry="15.5159" style="stroke: #A80036; stroke-width: 1.5;"/><text fill="#000000" font-family="sans-serif" font-size="14" lengthAdjust="spacingAndGlyphs" textLength="95" x="314.0794" y="1055.6643">get catalogue</text><ellipse cx="361.6565" cy="49.1313" fill="#FEFECE" filter="url(#f4zyfwk8148zp)" rx="61.1565" ry="14.6313" style="stroke: #A80036; stroke-width: 1.5;"/><text fill="#000000" font-family="sans-serif" font-size="14" lengthAdjust="spacingAndGlyphs" textLength="83" x="320.1565" y="53.7797">track orders</text><ellipse cx="676.4151" cy="590.183" fill="#FEFECE" filter="url(#f4zyfwk8148zp)" rx="81.4151" ry="18.683" style="stroke: #A80036; stroke-width: 1.5;"/><text fill="#000000" font-family="sans-serif" font-size="14" lengthAdjust="spacingAndGlyphs" textLength="134" x="609.4151" y="594.8315">authenticate owner</text><ellipse cx="361.2711" cy="555.7542" fill="#FEFECE" filter="url(#f4zyfwk8148zp)" rx="76.7711" ry="17.7542" style="stroke: #A80036; stroke-width: 1.5;"/><text fill="#000000" font-family="sans-serif" font-size="14" lengthAdjust="spacingAndGlyphs" textLength="123" x="299.7711" y="560.4027">change password</text><ellipse cx="361.6543" cy="624.0236" fill="#FEFECE" filter="url(#f4zyfwk8148zp)" rx="58.1543" ry="14.5236" style="stroke: #A80036; stroke-width: 1.5;"/><text fill="#000000" font-family="sans-serif" font-size="14" lengthAdjust="spacingAndGlyphs" textLength="78" x="322.6543" y="628.6721">import data</text><ellipse cx="361.6543" cy="688.0236" fill="#FEFECE" filter="url(#f4zyfwk8148zp)" rx="58.1543" ry="14.5236" style="stroke: #A80036; stroke-width: 1.5;"/><text fill="#000000" font-family="sans-serif" font-size="14" lengthAdjust="spacingAndGlyphs" textLength="78" x="322.6543" y="692.6721">export data</text><ellipse cx="361.5253" cy="755.0051" fill="#FEFECE" filter="url(#f4zyfwk8148zp)" rx="75.5253" ry="17.5051" style="stroke: #A80036; stroke-width: 1.5;"/><text fill="#000000" font-family="sans-serif" font-size="14" lengthAdjust="spacingAndGlyphs" textLength="120" x="301.5253" y="759.6535">retrieve data data</text><ellipse cx="361.2901" cy="825.758" fill="#FEFECE" filter="url(#f4zyfwk8148zp)" rx="79.2901" ry="18.258" style="stroke: #A80036; stroke-width: 1.5;"/><text fill="#000000" font-family="sans-serif" font-size="14" lengthAdjust="spacingAndGlyphs" textLength="129" x="296.7901" y="830.4065">receive notification</text><!--MD5=[55f2968de154b8cc740615bf6e5af92f]
entity owner--><ellipse cx="98" cy="593" fill="#FEFECE" filter="url(#f4zyfwk8148zp)" rx="8" ry="8" style="stroke: #A80036; stroke-width: 1.5;"/><path d="M98,601 L98,628 M85,609 L111,609 M98,628 L85,643 M98,628 L111,643 " fill="none" filter="url(#f4zyfwk8148zp)" style="stroke: #A80036; stroke-width: 1.5;"/><text fill="#000000" font-family="sans-serif" font-size="14" lengthAdjust="spacingAndGlyphs" textLength="43" x="76.5" y="661.4951">owner</text><!--MD5=[e0ce3f04a84c4e9839cbbe02ae2dfcd5]
entity pos--><ellipse cx="98" cy="156" fill="#FEFECE" filter="url(#f4zyfwk8148zp)" rx="8" ry="8" style="stroke: #A80036; stroke-width: 1.5;"/><path d="M98,164 L98,191 M85,172 L111,172 M98,191 L85,206 M98,191 L111,206 " fill="none" filter="url(#f4zyfwk8148zp)" style="stroke: #A80036; stroke-width: 1.5;"/><text fill="#000000" font-family="sans-serif" font-size="14" lengthAdjust="spacingAndGlyphs" textLength="89" x="53.5" y="224.4951">POS provider</text><!--MD5=[d5096230de5c7e9b5a3d1997ba7f37f3]
entity cs--><ellipse cx="98" cy="1056" fill="#FEFECE" filter="url(#f4zyfwk8148zp)" rx="8" ry="8" style="stroke: #A80036; stroke-width: 1.5;"/><path d="M98,1064 L98,1091 M85,1072 L111,1072 M98,1091 L85,1106 M98,1091 L111,1106 " fill="none" filter="url(#f4zyfwk8148zp)" style="stroke: #A80036; stroke-width: 1.5;"/><text fill="#000000" font-family="sans-serif" font-size="14" lengthAdjust="spacingAndGlyphs" textLength="90" x="53" y="1124.4951">cash register</text><!--MD5=[bcb06b6d3c69a8cc25a1eea99eeb0433]
entity stp--><ellipse cx="98" cy="18" fill="#FEFECE" filter="url(#f4zyfwk8148zp)" rx="8" ry="8" style="stroke: #A80036; stroke-width: 1.5;"/><path d="M98,26 L98,53 M85,34 L111,34 M98,53 L85,68 M98,53 L111,68 " fill="none" filter="url(#f4zyfwk8148zp)" style="stroke: #A80036; stroke-width: 1.5;"/><text fill="#000000" font-family="sans-serif" font-size="14" lengthAdjust="spacingAndGlyphs" textLength="184" x="6" y="86.4951">shipment tracking provider</text><!--MD5=[3423871069a8e5f5f24bc0548f0f110c]
link owner to mnga--><path d="M114.73,664.52 C137.22,717.32 183.44,809.12 251,862 C263.74,871.98 279.33,879.34 294.7,884.74 " fill="none" id="owner-&gt;mnga" style="stroke: #A80036; stroke-width: 1.0;"/><polygon fill="#A80036" points="299.46,886.36,292.2169,879.6864,294.7238,884.7574,289.6527,887.2643,299.46,886.36" style="stroke: #A80036; stroke-width: 1.0;"/><!--MD5=[8f6c924f99e5122d3794e0d13c91dad7]
link owner to mngc--><path d="M108.35,664.58 C125.53,730.42 168.19,860.71 251,936 C260.97,945.06 273.12,952.18 285.66,957.75 " fill="none" id="owner-&gt;mngc" style="stroke: #A80036; stroke-width: 1.0;"/><polygon fill="#A80036" points="290.3,959.74,283.6034,952.5181,285.7043,957.7704,280.452,959.8713,290.3,959.74" style="stroke: #A80036; stroke-width: 1.0;"/><!--MD5=[a435f4b43c5b275008831119dfcc4050]
link owner to mngo--><path d="M107.08,583.27 C128.27,480.2 188.18,212.76 251,150 C263.16,137.86 279.52,129.92 295.89,124.74 " fill="none" id="owner-&gt;mngo" style="stroke: #A80036; stroke-width: 1.0;"/><polygon fill="#A80036" points="300.96,123.22,291.1885,121.9882,296.1728,124.6633,293.4977,129.6477,300.96,123.22" style="stroke: #A80036; stroke-width: 1.0;"/><!--MD5=[3942124d668f3590fa7a92c17aa07483]
link owner to mngs--><path d="M106.82,583.47 C122.2,514.57 162.86,374.44 251,296 C263.19,285.15 278.73,277.56 294.25,272.25 " fill="none" id="owner-&gt;mngs" style="stroke: #A80036; stroke-width: 1.0;"/><polygon fill="#A80036" points="299.06,270.68,289.2622,269.6782,294.3081,272.2354,291.7509,277.2813,299.06,270.68" style="stroke: #A80036; stroke-width: 1.0;"/><!--MD5=[7258924fad32647a6d4b9098c05762b4]
link owner to mngcs--><path d="M102.95,583.47 C112.9,503.44 146.24,324.33 251,225 C261.76,214.8 275.39,207.32 289.36,201.85 " fill="none" id="owner-&gt;mngcs" style="stroke: #A80036; stroke-width: 1.0;"/><polygon fill="#A80036" points="294.1,200.07,284.268,199.4947,289.4201,201.8303,287.0845,206.9825,294.1,200.07" style="stroke: #A80036; stroke-width: 1.0;"/><!--MD5=[ce76f01f6443e9777c21c0ce9c50234f]
link owner to mngiv--><path d="M112.71,583.07 C133.69,526.48 179.09,424.82 251,367 C264,356.55 280.15,349.08 296.02,343.77 " fill="none" id="owner-&gt;mngiv" style="stroke: #A80036; stroke-width: 1.0;"/><polygon fill="#A80036" points="300.93,342.19,291.1378,341.135,296.1697,343.7196,293.5851,348.7515,300.93,342.19" style="stroke: #A80036; stroke-width: 1.0;"/><!--MD5=[a029d056ac1441573606a0542ed42700]
link owner to mngio--><path d="M119.68,587.12 C145.25,544.75 192.63,475.94 251,436 C265.55,426.04 283.11,418.79 299.85,413.56 " fill="none" id="owner-&gt;mngio" style="stroke: #A80036; stroke-width: 1.0;"/><polygon fill="#A80036" points="305.02,412,295.2485,410.7682,300.2328,413.4433,297.5577,418.4277,305.02,412" style="stroke: #A80036; stroke-width: 1.0;"/><!--MD5=[17fbf98b018942627e4918dda06dc408]
link owner to mngsc--><path d="M119.71,607.77 C148.13,586.03 201.36,547.15 251,521 C265.33,513.45 281.29,506.45 296.49,500.39 " fill="none" id="owner-&gt;mngsc" style="stroke: #A80036; stroke-width: 1.0;"/><polygon fill="#A80036" points="301.18,498.54,291.3403,498.1163,296.5278,500.3722,294.2719,505.5598,301.18,498.54" style="stroke: #A80036; stroke-width: 1.0;"/><!--MD5=[164c69a7396055fc440bb6c31b399983]
link owner to mngsr--><path d="M100.97,664.7 C107.4,753 134.78,963.85 251,1084 C260.16,1093.47 271.71,1100.77 283.85,1106.4 " fill="none" id="owner-&gt;mngsr" style="stroke: #A80036; stroke-width: 1.0;"/><polygon fill="#A80036" points="288.71,1108.55,282.106,1101.2433,284.1398,1106.522,278.8611,1108.5557,288.71,1108.55" style="stroke: #A80036; stroke-width: 1.0;"/><!--MD5=[391ccd1b57e51d438d97f8b95f42664f]
link owner to password--><path d="M119.52,618.66 C158.85,608.44 246.08,585.75 304.08,570.67 " fill="none" id="owner-&gt;password" style="stroke: #A80036; stroke-width: 1.0;"/><polygon fill="#A80036" points="309.25,569.33,299.5337,567.7197,304.4104,570.5863,301.5438,575.463,309.25,569.33" style="stroke: #A80036; stroke-width: 1.0;"/><!--MD5=[63bbf4533a2b5c82c10e1c5c6fcc155e]
link owner to import--><path d="M119.52,624 C157.56,624 240.42,624 298.3,624 " fill="none" id="owner-&gt;import" style="stroke: #A80036; stroke-width: 1.0;"/><polygon fill="#A80036" points="303.47,624,294.47,620,298.47,624,294.47,628,303.47,624" style="stroke: #A80036; stroke-width: 1.0;"/><!--MD5=[3ca8e7f27a5ab55cb9ec684dfe926a22]
link owner to export--><path d="M119.52,629.02 C161.24,639.23 256.88,662.64 314.34,676.7 " fill="none" id="owner-&gt;export" style="stroke: #A80036; stroke-width: 1.0;"/><polygon fill="#A80036" points="319.43,677.95,311.6354,671.9297,314.5726,676.7642,309.7381,679.7015,319.43,677.95" style="stroke: #A80036; stroke-width: 1.0;"/><!--MD5=[eb8b8f746cee78f9a5c0f385d33443d2]
link owner to getc--><path d="M103,664.5 C113.02,743.98 146.43,921.04 251,1018 C263.93,1029.99 281.07,1037.63 297.94,1042.5 " fill="none" id="owner-&gt;getc" style="stroke: #A80036; stroke-width: 1.0;"/><polygon fill="#A80036" points="303.16,1043.92,295.5265,1037.6967,298.3355,1042.6068,293.4254,1045.4159,303.16,1043.92" style="stroke: #A80036; stroke-width: 1.0;"/><!--MD5=[d23c417f482649109584a89bf4b89922]
reverse link owner to notification--><path d="M122.77,659.22 C149.74,696.65 197.06,755.16 251,790 C266.8,800.21 285.76,807.77 303.43,813.26 " fill="none" id="owner&lt;-notification" style="stroke: #A80036; stroke-width: 1.0;"/><polygon fill="#A80036" points="119.58,654.76,121.5434,664.4112,122.4808,658.8325,128.0594,659.7699,119.58,654.76" style="stroke: #A80036; stroke-width: 1.0;"/><!--MD5=[d1d47c286211bc8169b3985d97c50d12]
reverse link owner to retrieve--><path d="M123.82,642.47 C153.02,663.52 203.55,697.87 251,720 C269.9,728.81 291.62,736.26 310.7,742 " fill="none" id="owner&lt;-retrieve" style="stroke: #A80036; stroke-width: 1.0;"/><polygon fill="#A80036" points="119.67,639.46,124.6121,647.9791,123.7192,642.3932,129.3052,641.5004,119.67,639.46" style="stroke: #A80036; stroke-width: 1.0;"/><!--MD5=[6c55d16c2b02c1b380c123ca896c9ae1]
link mnga to auth--><path d="M419.38,885.38 C464.4,871.9 525.99,847.06 565,805 C619.3,746.46 653.93,656.17 668.13,613.67 " fill="none" id="mnga-&gt;auth" style="stroke: #A80036; stroke-width: 1.0;"/><polygon fill="#A80036" points="669.76,608.73,663.1522,616.0332,668.2003,613.4805,670.753,618.5287,669.76,608.73" style="stroke: #A80036; stroke-width: 1.0;"/><text fill="#000000" font-family="sans-serif" font-size="13" lengthAdjust="spacingAndGlyphs" textLength="61" x="503" y="801.0669">«include»</text><!--MD5=[5c7d3745c0f0759ae0af699ffeee9282]
link mngc to auth--><path d="M430.09,959.2 C474.6,944.11 530.77,918.04 565,876 C631.93,793.79 661.6,666.39 671.48,613.88 " fill="none" id="mngc-&gt;auth" style="stroke: #A80036; stroke-width: 1.0;"/><polygon fill="#A80036" points="672.42,608.74,666.8641,616.8722,671.5193,613.6582,674.7333,618.3133,672.42,608.74" style="stroke: #A80036; stroke-width: 1.0;"/><text fill="#000000" font-family="sans-serif" font-size="13" lengthAdjust="spacingAndGlyphs" textLength="61" x="503" y="872.0669">«include»</text><!--MD5=[7f8299efe0c556fe71177e3986fda04b]
link mngo to auth--><path d="M417.13,125.12 C463.94,136.79 529.3,160.79 565,208 C651.26,322.09 670.27,501.7 674.39,566.07 " fill="none" id="mngo-&gt;auth" style="stroke: #A80036; stroke-width: 1.0;"/><polygon fill="#A80036" points="674.7,571.22,678.1522,561.996,674.3997,566.229,670.1667,562.4765,674.7,571.22" style="stroke: #A80036; stroke-width: 1.0;"/><text fill="#000000" font-family="sans-serif" font-size="13" lengthAdjust="spacingAndGlyphs" textLength="61" x="503" y="154.0669">«include»</text><!--MD5=[ad876e1e38715ed8ef1e1c7bb1afeac2]
link mngs to auth--><path d="M416.76,272.77 C462.37,286.18 526.16,311.67 565,356 C622.16,421.24 655.95,521.16 669.11,566.35 " fill="none" id="mngs-&gt;auth" style="stroke: #A80036; stroke-width: 1.0;"/><polygon fill="#A80036" points="670.54,571.33,671.9136,561.5774,669.1664,566.5224,664.2214,563.7752,670.54,571.33" style="stroke: #A80036; stroke-width: 1.0;"/><text fill="#000000" font-family="sans-serif" font-size="13" lengthAdjust="spacingAndGlyphs" textLength="61" x="503" y="303.0669">«include»</text><!--MD5=[4a0d3d3580b5c897c06c09965be75fa3]
link mngcs to auth--><path d="M425.56,201 C470.89,214.32 529.97,238.92 565,282 C637.22,370.81 664.21,510.63 672.43,566.14 " fill="none" id="mngcs-&gt;auth" style="stroke: #A80036; stroke-width: 1.0;"/><polygon fill="#A80036" points="673.17,571.25,675.8417,561.7704,672.4549,566.3014,667.9239,562.9146,673.17,571.25" style="stroke: #A80036; stroke-width: 1.0;"/><text fill="#000000" font-family="sans-serif" font-size="13" lengthAdjust="spacingAndGlyphs" textLength="61" x="503" y="229.0669">«include»</text><!--MD5=[e0917f88bb2dfbbe0c18228dc31140e7]
link mngiv to auth--><path d="M412.6,344.52 C431.62,350.41 453.22,358.04 472,367 C516.39,388.19 529.82,392.62 565,427 C609.04,470.05 645.82,533.22 663.74,566.88 " fill="none" id="mngiv-&gt;auth" style="stroke: #A80036; stroke-width: 1.0;"/><polygon fill="#A80036" points="666.25,571.63,665.5639,561.8051,663.906,567.2135,658.4975,565.5555,666.25,571.63" style="stroke: #A80036; stroke-width: 1.0;"/><text fill="#000000" font-family="sans-serif" font-size="13" lengthAdjust="spacingAndGlyphs" textLength="61" x="503" y="377.0669">«include»</text><!--MD5=[a2f0cd541b904585e5836b937b716310]
link mngio to auth--><path d="M411.9,413.52 C431.14,419.23 453.06,426.8 472,436 C545.05,471.5 617.83,535.13 653.27,568.39 " fill="none" id="mngio-&gt;auth" style="stroke: #A80036; stroke-width: 1.0;"/><polygon fill="#A80036" points="656.99,571.91,653.1777,562.8289,653.349,568.4832,647.6947,568.6545,656.99,571.91" style="stroke: #A80036; stroke-width: 1.0;"/><text fill="#000000" font-family="sans-serif" font-size="13" lengthAdjust="spacingAndGlyphs" textLength="61" x="503" y="448.0669">«include»</text><!--MD5=[e6b1d2f4387b436f0a51a93365ff5007]
link mngsc to auth--><path d="M425.3,498.1 C465.45,511.2 518.52,528.96 565,546 C587.08,554.09 611.38,563.69 631.55,571.86 " fill="none" id="mngsc-&gt;auth" style="stroke: #A80036; stroke-width: 1.0;"/><polygon fill="#A80036" points="636.32,573.79,629.4944,566.69,631.6895,571.9035,626.476,574.0987,636.32,573.79" style="stroke: #A80036; stroke-width: 1.0;"/><text fill="#000000" font-family="sans-serif" font-size="13" lengthAdjust="spacingAndGlyphs" textLength="61" x="503" y="520.0669">«include»</text><!--MD5=[6078945a568e3daef34f763655ceb210]
link mngsr to auth--><path d="M428.69,1107.51 C443.85,1101.59 459.25,1093.89 472,1084 C529.01,1039.81 533.39,1015.83 565,951 C623.55,830.9 658.92,673.17 670.9,613.89 " fill="none" id="mngsr-&gt;auth" style="stroke: #A80036; stroke-width: 1.0;"/><polygon fill="#A80036" points="671.92,608.79,666.2281,616.8276,670.9367,613.6924,674.0719,618.4009,671.92,608.79" style="stroke: #A80036; stroke-width: 1.0;"/><text fill="#000000" font-family="sans-serif" font-size="13" lengthAdjust="spacingAndGlyphs" textLength="61" x="503" y="947.0669">«include»</text><!--MD5=[e2446e35fe6b8ac1dd654175af6b3c5d]
link export to auth--><path d="M415.24,682.25 C456.79,676.68 515.73,666.45 565,649 C592.94,639.1 622.46,623.02 643.95,610.14 " fill="none" id="export-&gt;auth" style="stroke: #A80036; stroke-width: 1.0;"/><polygon fill="#A80036" points="648.41,607.45,638.6394,608.6889,644.1327,610.0393,642.7822,615.5326,648.41,607.45" style="stroke: #A80036; stroke-width: 1.0;"/><text fill="#000000" font-family="sans-serif" font-size="13" lengthAdjust="spacingAndGlyphs" textLength="61" x="503" y="645.0669">«include»</text><!--MD5=[6fddc62cc25807cd6a33c16785294d12]
link import to auth--><path d="M419.09,626.1 C459.86,626.76 516.08,625.93 565,619 C584.3,616.27 605.06,611.36 623.32,606.35 " fill="none" id="import-&gt;auth" style="stroke: #A80036; stroke-width: 1.0;"/><polygon fill="#A80036" points="628.4,604.94,618.6562,603.5052,623.5838,606.2834,620.8056,611.211,628.4,604.94" style="stroke: #A80036; stroke-width: 1.0;"/><text fill="#000000" font-family="sans-serif" font-size="13" lengthAdjust="spacingAndGlyphs" textLength="61" x="503" y="615.0669">«include»</text><!--MD5=[32974577d1e23ec02ee62f1533e6ecc5]
link password to auth--><path d="M431.58,563.5 C480.66,568.84 546.63,576 597.59,581.54 " fill="none" id="password-&gt;auth" style="stroke: #A80036; stroke-width: 1.0;"/><polygon fill="#A80036" points="602.79,582.1,594.2774,577.1467,597.8195,581.5572,593.409,585.0994,602.79,582.1" style="stroke: #A80036; stroke-width: 1.0;"/><text fill="#000000" font-family="sans-serif" font-size="13" lengthAdjust="spacingAndGlyphs" textLength="61" x="503" y="567.0669">«include»</text><!--MD5=[dfe2615e171897beb5e63d4b8007dcd6]
link notification to auth--><path d="M418.73,812.98 C462.49,800.58 522.69,778.32 565,742 C609.12,704.13 645.37,645.31 663.32,613.07 " fill="none" id="notification-&gt;auth" style="stroke: #A80036; stroke-width: 1.0;"/><polygon fill="#A80036" points="665.83,608.51,657.9774,614.4545,663.4127,612.8868,664.9804,618.3221,665.83,608.51" style="stroke: #A80036; stroke-width: 1.0;"/><text fill="#000000" font-family="sans-serif" font-size="13" lengthAdjust="spacingAndGlyphs" textLength="61" x="503" y="738.0669">«include»</text><!--MD5=[204c51859c0827d190e336591d7fc2c0]
link retrieve to auth--><path d="M420.23,743.79 C462.31,733.99 519.65,717.16 565,691 C601.6,669.88 636.29,634.85 656.72,612.09 " fill="none" id="retrieve-&gt;auth" style="stroke: #A80036; stroke-width: 1.0;"/><polygon fill="#A80036" points="660.12,608.27,651.1501,612.3371,656.7973,612.0063,657.1281,617.6534,660.12,608.27" style="stroke: #A80036; stroke-width: 1.0;"/><text fill="#000000" font-family="sans-serif" font-size="13" lengthAdjust="spacingAndGlyphs" textLength="61" x="503" y="687.0669">«include»</text><!--MD5=[95070763e8c2d792e0330b165c798354]
link cs to mngsr--><path d="M143.06,1093.4 C177.54,1098.41 226.66,1105.55 269.49,1111.77 " fill="none" id="cs-&gt;mngsr" style="stroke: #A80036; stroke-width: 1.0;"/><polygon fill="#A80036" points="274.68,1112.53,266.3446,1107.2839,269.7314,1111.8149,265.2004,1115.2017,274.68,1112.53" style="stroke: #A80036; stroke-width: 1.0;"/><!--MD5=[34131e0a5932159f9083e12ccbcae9c8]
reverse link cs to getc--><path d="M148.1,1080.24 C192.53,1074.12 257.91,1065.12 304.38,1058.73 " fill="none" id="cs&lt;-getc" style="stroke: #A80036; stroke-width: 1.0;"/><polygon fill="#A80036" points="143.06,1080.93,152.5232,1083.6591,148.0128,1080.2449,151.427,1075.7345,143.06,1080.93" style="stroke: #A80036; stroke-width: 1.0;"/><!--MD5=[c86ba5ba8ff5c023cb9984a8fe35529a]
reverse link stp to tracko--><path d="M195.26,49 C230.48,49 269.3,49 300.46,49 " fill="none" id="stp&lt;-tracko" style="stroke: #A80036; stroke-width: 1.0;"/><polygon fill="#A80036" points="190.09,49,199.09,53,195.09,49,199.09,45,190.09,49" style="stroke: #A80036; stroke-width: 1.0;"/><!--MD5=[d7b17a5599d3ae2d30031b456abb873e]
reverse link pos to mngcs--><path d="M147.85,187 C182.94,187 231.2,187 272.88,187 " fill="none" id="pos&lt;-mngcs" style="stroke: #A80036; stroke-width: 1.0;"/><polygon fill="#A80036" points="142.77,187,151.77,191,147.77,187,151.77,183,142.77,187" style="stroke: #A80036; stroke-width: 1.0;"/><!--MD5=[23b7695db28168cc072deaaaa2efac50]
@startuml usecaseDiagram
left to right direction 
!pragma layout smetana
skinparam backgroundColor #fcf7f2

usecase "manage accounting" as mnga
usecase "manage product catalogue" as mngc
usecase "manage orders" as mngo
usecase "manage suppliers" as mngs
usecase "manage cash register" as mngcs
usecase "manage inventory" as mngiv
usecase "manage invoices" as mngio
usecase "manage shipping companies" as mngsc
usecase "manage sales and refunds" as mngsr

usecase "get catalogue" as getc
usecase "track orders" as tracko

usecase "authenticate owner" as auth
usecase "change password" as password

usecase "import data" as import
usecase "export data" as export
usecase "retrieve data data" as retrieve

usecase "receive notification" as notification


actor owner
actor "POS provider" as pos
actor "cash register" as cs
actor "shipment tracking provider" as stp


owner - -> mnga
owner - -> mngc
owner - -> mngo
owner - -> mngs
owner - -> mngcs
owner - -> mngiv
owner - -> mngio
owner - -> mngsc
owner - -> mngsr

owner - -> password
owner - -> import
owner - -> export
owner - -> getc
owner <- - notification
owner <- - retrieve

mnga - -> auth : <<include>>
mngc - -> auth : <<include>>
mngo - -> auth : <<include>>
mngs - -> auth : <<include>>
mngcs - -> auth : <<include>>
mngiv - -> auth : <<include>>
mngio - -> auth : <<include>>
mngsc - -> auth : <<include>>
mngsr - -> auth : <<include>>
export - -> auth : <<include>>
import - -> auth : <<include>>
password - -> auth : <<include>>
notification - -> auth : <<include>>
retrieve - -> auth : <<include>>


cs - -> mngsr
cs <- - getc

stp <- - tracko

pos <- - mngcs

@enduml

PlantUML version 1.2020.02(Sun Mar 01 11:22:07 CET 2020)
(GPL source distribution)
Java Runtime: OpenJDK Runtime Environment
JVM: OpenJDK 64-Bit Server VM
Java Version: 21.0.8+9-Ubuntu-0ubuntu122.04.1
Operating System: Linux
Default Encoding: UTF-8
Language: en
Country: GB
--></g></svg>